<svg width="259" height="401" viewBox="0 0 259 401" fill="none" xmlns="http://www.w3.org/2000/svg">
<path fill-rule="evenodd" clip-rule="evenodd" d="M78.1366 121.078L69.3639 120.471C50.8068 119.186 42.918 96.1914 56.7748 83.7765L68.0737 73.6534C70.9659 71.0622 73.0848 67.7198 74.1957 63.9966L78.1473 50.7522C83.4821 32.8723 107.701 30.2765 116.712 46.6188L120.485 53.4617C120.747 53.9361 121.466 53.7771 121.503 53.2367L122.038 45.4413C123.316 26.823 146.37 18.9619 158.748 32.9236L167.917 43.2656C170.495 46.173 173.825 48.3098 177.541 49.4395L192.055 53.8526C209.855 59.2648 212.401 83.441 196.117 92.433L188.421 96.683C187.947 96.9447 188.106 97.6628 188.646 97.7002L197.417 98.3076C215.974 99.5927 223.863 122.587 210.006 135.002L198.707 145.125C195.815 147.716 193.696 151.058 192.585 154.782L188.633 168.026C183.299 185.906 159.08 188.502 150.069 172.16L146.295 165.317C146.034 164.842 145.315 165.001 145.278 165.542L144.743 173.338C143.465 191.956 120.411 199.817 108.033 185.856L98.8638 175.514C96.2861 172.606 92.9553 170.469 89.24 169.34L74.7256 164.927C56.9254 159.514 54.38 135.338 70.6637 126.346L78.3616 122.095C78.8355 121.834 78.6766 121.116 78.1366 121.078ZM149.57 105.738C148.779 102.164 140.817 100.886 131.787 102.884C122.756 104.881 116.076 109.398 116.867 112.972C117.657 116.547 125.619 117.825 134.65 115.827C143.681 113.83 150.361 109.313 149.57 105.738Z" fill="url(#paint0_linear_2874_1056)"/>
<path d="M11.5884 207.116L11.3543 208.53C10.5511 213.383 8.01733 217.78 4.22184 220.909L3.11586 221.82L4.5299 222.054C9.38255 222.857 13.78 225.391 16.9085 229.187L17.8202 230.293L18.0542 228.879C18.8574 224.026 21.3912 219.629 25.1867 216.5L26.2927 215.588L24.8786 215.354C20.026 214.551 15.6285 212.017 12.5 208.222L11.5884 207.116Z" fill="url(#paint1_linear_2874_1056)"/>
<path d="M80.208 347.608L78.374 349.837C72.0798 357.487 63.2279 362.597 53.4562 364.224L50.6088 364.697L52.8378 366.531C60.4873 372.826 65.5979 381.677 67.2241 391.449L67.6979 394.297L69.532 392.068C75.8261 384.418 84.678 379.307 94.4498 377.681L97.2972 377.207L95.0682 375.373C87.4187 369.079 82.308 360.227 80.6819 350.456L80.208 347.608Z" fill="url(#paint2_linear_2874_1056)"/>
<path d="M215.976 1.76484L215.247 2.99894C212.746 7.23409 208.795 10.4198 204.126 11.9666L202.765 12.4174L203.999 13.1462C208.235 15.6476 211.42 19.5984 212.967 24.2675L213.418 25.6281L214.147 24.394C216.648 20.1588 220.599 16.9731 225.268 15.4263L226.629 14.9756L225.395 14.2467C221.159 11.7453 217.974 7.79453 216.427 3.1254L215.976 1.76484Z" fill="url(#paint3_linear_2874_1056)"/>
<path d="M251.568 354.917L251.026 355.555C249.169 357.741 246.582 359.181 243.745 359.608L242.918 359.732L243.555 360.273C245.742 362.131 247.182 364.718 247.608 367.555L247.732 368.382L248.274 367.745C250.131 365.558 252.718 364.118 255.555 363.691L256.382 363.567L255.745 363.026C253.558 361.168 252.118 358.582 251.692 355.744L251.568 354.917Z" fill="url(#paint4_linear_2874_1056)"/>
<defs>
<linearGradient id="paint0_linear_2874_1056" x1="112.013" y1="12.7493" x2="148.297" y2="176.002" gradientUnits="userSpaceOnUse">
<stop stop-color="#FFC4E5"/>
<stop offset="1" stop-color="#FB339A"/>
</linearGradient>
<linearGradient id="paint1_linear_2874_1056" x1="11.5884" y1="207.116" x2="17.8202" y2="230.293" gradientUnits="userSpaceOnUse">
<stop stop-color="#FDFF72"/>
<stop offset="1" stop-color="#FFC4E5"/>
</linearGradient>
<linearGradient id="paint2_linear_2874_1056" x1="80.208" y1="347.608" x2="67.6979" y2="394.297" gradientUnits="userSpaceOnUse">
<stop stop-color="#FDFF72"/>
<stop offset="1" stop-color="#FFC4E5"/>
</linearGradient>
<linearGradient id="paint3_linear_2874_1056" x1="215.976" y1="1.76484" x2="213.418" y2="25.6281" gradientUnits="userSpaceOnUse">
<stop stop-color="#FDFF72"/>
<stop offset="1" stop-color="#FFC4E5"/>
</linearGradient>
<linearGradient id="paint4_linear_2874_1056" x1="251.568" y1="354.917" x2="247.732" y2="368.382" gradientUnits="userSpaceOnUse">
<stop stop-color="#FDFF72"/>
<stop offset="1" stop-color="#FFC4E5"/>
</linearGradient>
</defs>
</svg>
