<svg width="180" height="134" viewBox="0 0 180 134" fill="none" xmlns="http://www.w3.org/2000/svg">
<path d="M2.16797 81.6739C12.7548 88.0589 30.0366 93.1529 51.0427 96.0025C54.8705 111.64 61.7133 124.506 70.2901 132.387C36.4064 126.754 9.73491 106.898 2.16797 81.6739Z" fill="url(#paint0_linear_1_3550)"/>
<path d="M177.832 81.6697C167.244 88.0591 149.967 93.1509 128.958 96.002C131.145 87.1015 132.352 77.2943 132.352 66.9999C132.352 56.7057 131.145 46.8993 128.958 37.9986C149.964 40.8515 167.245 45.9419 177.832 52.3269C179.251 57.0505 180 61.9612 180 67.0003C180 72.0393 179.251 76.9498 177.832 81.6697Z" fill="url(#paint1_linear_1_3550)"/>
<path d="M125.771 5.50446C151.841 13.9175 171.507 31.2495 177.833 52.3262C167.246 45.9412 149.964 40.8508 128.958 37.9979C126.406 27.5714 122.515 18.3771 117.657 11.0716C115.233 7.42254 112.573 4.23882 109.711 1.61294C115.278 2.53713 120.648 3.84678 125.771 5.50446Z" fill="url(#paint2_linear_1_3550)"/>
<path d="M70.2892 1.61389C61.7128 9.49483 54.8703 22.3601 51.0425 37.998C62.9988 36.3697 76.172 35.4712 90.0004 35.4712C91.2318 35.4712 92.4583 35.4785 93.6798 35.4932C106.163 35.6362 118.066 36.516 128.958 37.9976C126.406 27.5714 122.514 18.3775 117.657 11.0722C115.233 7.4231 112.573 4.23941 109.711 1.61354C103.371 0.557327 96.7742 -0.000171661 90.0004 -0.000171661C83.2266 -0.000171661 76.6294 0.557667 70.2892 1.61389Z" fill="url(#paint3_linear_1_3550)"/>
<path d="M51.0422 37.9975C30.0361 40.8508 12.7543 45.9412 2.16748 52.3262C9.73442 27.1053 36.4059 7.24649 70.2891 1.61332C61.7128 9.49426 54.87 22.3596 51.0422 37.9975Z" fill="url(#paint4_linear_1_3550)"/>
<path d="M128.957 96.0019C117.001 97.6301 103.828 98.5286 90.0003 98.5286C86.941 98.5286 83.9113 98.4846 80.9209 98.3965C70.4033 98.0958 60.3537 97.2715 51.043 96.0026C54.8708 111.64 61.7135 124.506 70.2903 132.386C76.6305 133.443 83.2265 134 90.0003 134C93.2516 134 96.4587 133.872 99.6214 133.619C103.045 133.351 106.415 132.937 109.711 132.386C118.288 124.505 125.13 111.64 128.958 96.0022C128.958 96.0021 128.957 96.002 128.957 96.0019Z" fill="url(#paint5_linear_1_3550)"/>
<path d="M128.958 37.9987C131.145 46.8996 132.352 56.7063 132.352 67.0008C132.352 77.2952 131.145 87.102 128.958 96.0024C117.001 97.6308 103.828 98.5293 89.9997 98.5293C86.9404 98.5293 83.9106 98.4853 80.9203 98.3973C70.4025 98.0965 60.3526 97.2722 51.0417 96.0032C48.8544 87.1024 47.6475 77.2957 47.6475 67.0012C47.6475 56.7067 48.8544 46.9 51.0417 37.9991C62.9981 36.3708 76.1713 35.4723 89.9996 35.4723C91.2311 35.4723 92.4575 35.4796 93.6791 35.4943C106.163 35.6373 118.065 36.5171 128.958 37.9987Z" fill="url(#paint6_linear_1_3550)"/>
<path d="M109.711 132.387C118.288 124.505 125.131 111.64 128.958 96.0025C149.968 93.1515 167.244 88.0596 177.833 81.6702C170.266 106.895 143.594 126.754 109.711 132.387Z" fill="url(#paint7_linear_1_3550)"/>
<path d="M47.648 67.0003C47.648 77.2946 48.855 87.1012 51.0422 96.002C30.0364 93.1523 12.7548 88.0583 2.16811 81.6734C0.74931 76.9534 0 72.0426 0 66.9999C0 61.9608 0.748812 57.0501 2.16761 52.3265C12.7544 45.9415 30.0362 40.8515 51.0423 37.9983C48.855 46.8991 47.648 56.7059 47.648 67.0003Z" fill="url(#paint8_linear_1_3550)"/>
<defs>
<linearGradient id="paint0_linear_1_3550" x1="36.2635" y1="135.807" x2="36.2635" y2="89.5381" gradientUnits="userSpaceOnUse">
<stop stop-color="#FF3E00"/>
<stop offset="1" stop-color="#FB339A"/>
</linearGradient>
<linearGradient id="paint1_linear_1_3550" x1="154.479" y1="74.6462" x2="154.479" y2="26.4928" gradientUnits="userSpaceOnUse">
<stop stop-color="#FFC4E5"/>
<stop offset="1" stop-color="#FDFF72"/>
</linearGradient>
<linearGradient id="paint2_linear_1_3550" x1="143.772" y1="33.6545" x2="143.772" y2="-8.4468" gradientUnits="userSpaceOnUse">
<stop stop-color="#FFC4E5"/>
<stop offset="1" stop-color="#FDFF72"/>
</linearGradient>
<linearGradient id="paint3_linear_1_3550" x1="90.0819" y1="43.6751" x2="90.0819" y2="-8.7928" gradientUnits="userSpaceOnUse">
<stop stop-color="#FF3E00"/>
<stop offset="1" stop-color="#FFC4E5"/>
</linearGradient>
<linearGradient id="paint4_linear_1_3550" x1="36.2628" y1="55.7469" x2="36.2628" y2="9.47754" gradientUnits="userSpaceOnUse">
<stop stop-color="#FF3E00"/>
<stop offset="1" stop-color="#FB339A"/>
</linearGradient>
<linearGradient id="paint5_linear_1_3550" x1="90.0822" y1="139.677" x2="90.0822" y2="87.2093" gradientUnits="userSpaceOnUse">
<stop stop-color="#FFC4E5"/>
<stop offset="1" stop-color="#FF3E00"/>
</linearGradient>
<linearGradient id="paint6_linear_1_3550" x1="90.0425" y1="102.783" x2="90.0425" y2="45.2508" gradientUnits="userSpaceOnUse">
<stop stop-color="#FF3E00"/>
<stop offset="1" stop-color="#FB339A"/>
</linearGradient>
<linearGradient id="paint7_linear_1_3550" x1="143.806" y1="135.808" x2="143.806" y2="89.535" gradientUnits="userSpaceOnUse">
<stop stop-color="#FF3E00"/>
<stop offset="1" stop-color="#FB339A"/>
</linearGradient>
<linearGradient id="paint8_linear_1_3550" x1="25.5212" y1="74.6461" x2="25.5212" y2="26.4924" gradientUnits="userSpaceOnUse">
<stop stop-color="#FFC4E5"/>
<stop offset="1" stop-color="#FDFF72"/>
</linearGradient>
</defs>
</svg>
