<svg width="300" height="300" viewBox="0 0 300 300" fill="none" xmlns="http://www.w3.org/2000/svg">
<path fill-rule="evenodd" clip-rule="evenodd" d="M45.657 149.479L28.2966 144.358C-5.15619 134.49 -10.2868 89.1987 20.1091 72.0818L44.8941 58.1246C51.2383 54.552 56.4709 49.2911 60.0125 42.9246L72.6106 20.2778C89.618 -10.2953 135.007 -5.2397 144.887 28.3282L149.479 43.9321C149.632 44.4517 150.368 44.4517 150.521 43.9321L155.113 28.3282C164.993 -5.2397 210.382 -10.2953 227.39 20.2778L239.988 42.9246C243.529 49.2911 248.762 54.552 255.106 58.1246L279.891 72.0818C310.287 89.1987 305.156 134.49 271.704 144.358L254.343 149.479C253.824 149.632 253.824 150.367 254.343 150.52L271.704 155.641C305.156 165.509 310.287 210.8 279.891 227.917L255.106 241.874C248.762 245.447 243.529 250.708 239.988 257.074L227.39 279.721C210.382 310.294 164.993 305.239 155.113 271.671L150.521 256.067C150.368 255.547 149.632 255.547 149.479 256.067L144.887 271.671C135.007 305.239 89.6178 310.294 72.6104 279.721L60.0124 257.074C56.4708 250.708 51.2381 245.447 44.8939 241.874L20.1089 227.917C-10.287 210.8 -5.15635 165.509 28.2964 155.641L45.657 150.52C46.1762 150.367 46.1762 149.632 45.657 149.479ZM181.099 149.869C181.099 143.005 167.041 137.441 149.699 137.441C132.357 137.441 118.298 143.005 118.298 149.869C118.298 156.733 132.357 162.297 149.699 162.297C167.041 162.297 181.099 156.733 181.099 149.869Z" fill="url(#paint0_linear_1_3531)"/>
<defs>
<linearGradient id="paint0_linear_1_3531" x1="150.152" y1="-20.2356" x2="150.152" y2="253.477" gradientUnits="userSpaceOnUse">
<stop stop-color="#FF3E00"/>
<stop offset="1" stop-color="#FB339A"/>
</linearGradient>
</defs>
</svg>
