<svg width="466" height="49" viewBox="0 0 466 49" fill="none" xmlns="http://www.w3.org/2000/svg">
<path d="M46.0208 0.785156H59.4856L59.0989 2.4375L34.138 24.2344L48.3059 46.3477L47.9544 48H37.0208L24.9973 28.8398H15.2591L11.0052 48H0.00125122L10.513 0.785156H21.5169L17.3684 19.418H25.2786L46.0208 0.785156ZM63.8647 48H54.3022L62.353 11.9297H72.5131L67.6967 34.5352L93.6069 11.9297H103.169L95.1186 48H84.9584L89.7748 25.4648L63.8647 48ZM125.865 48.8789C118.658 48.8789 113.173 46.9453 109.412 43.1133C105.65 39.2812 104.384 34.3945 105.615 28.4883L105.826 27.5391C106.845 22.2656 109.236 18.1875 113.068 15.3398C116.9 12.4922 121.857 11.0508 127.939 11.0508C134.373 11.0508 139.505 12.668 143.408 15.8672C147.31 19.1016 148.857 23.0391 148.119 27.6797L148.048 27.9961H137.291L137.361 27.6797C137.748 25.5703 137.045 23.8125 135.252 22.4414C133.459 21.0703 130.963 20.3672 127.798 20.3672C121.295 20.3672 117.181 23.3203 116.197 28.9102L115.986 29.7891C115.353 32.8125 115.951 35.2031 117.779 36.9609C119.607 38.7539 122.42 39.6328 126.216 39.6328C131.806 39.6328 135.568 37.2773 136.166 33.4453L136.236 33.1641H147.17V33.4453C146.396 38.2617 144.111 42.0234 140.349 44.7656C136.552 47.5078 131.736 48.8789 125.865 48.8789ZM171.939 48.8789C164.732 48.8789 159.248 46.9453 155.486 43.1133C151.724 39.2812 150.459 34.3945 151.689 28.4883L151.9 27.5391C152.92 22.2656 155.31 18.1875 159.142 15.3398C162.974 12.4922 167.931 11.0508 174.013 11.0508C180.447 11.0508 185.58 12.668 189.482 15.8672C193.385 19.1016 194.931 23.0391 194.193 27.6797L194.123 27.9961H183.365L183.435 27.6797C183.822 25.5703 183.119 23.8125 181.326 22.4414C179.533 21.0703 177.037 20.3672 173.873 20.3672C167.369 20.3672 163.256 23.3203 162.271 28.9102L162.06 29.7891C161.428 32.8125 162.025 35.2031 163.853 36.9609C165.681 38.7539 168.494 39.6328 172.291 39.6328C177.881 39.6328 181.642 37.2773 182.24 33.4453L182.31 33.1641H193.244V33.4453C192.47 38.2617 190.185 42.0234 186.424 44.7656C182.627 47.5078 177.81 48.8789 171.939 48.8789ZM233.482 11.9297H245.787L245.435 13.4414L227.506 30.3516L238.967 46.4883L238.58 48H227.998L218.225 34.2539H209.295L206.201 48H195.619L203.67 11.9297H214.252L211.228 25.3945H219.174L233.482 11.9297ZM262.611 48.8789C255.475 48.8789 249.99 47.0156 246.158 43.2539C242.326 39.4922 240.99 34.7109 242.08 28.8398L242.291 27.9258C243.24 22.6172 245.666 18.4688 249.498 15.4805C253.33 12.5273 258.357 11.0508 264.545 11.0508C271.682 11.0508 277.166 12.9492 280.928 16.7109C284.69 20.4727 286.025 25.3242 284.865 31.2305L284.725 32.1445C283.775 37.4531 281.385 41.5664 277.553 44.4844C273.721 47.4023 268.764 48.8789 262.611 48.8789ZM262.752 39.6328C268.975 39.6328 273.053 36.6797 274.143 31.3008L274.283 30.4922C274.916 27.4336 274.318 24.9727 272.525 23.1094C270.732 21.2812 267.99 20.3672 264.334 20.3672C257.76 20.3672 253.928 23.1797 252.873 28.7695L252.732 29.6484C252.1 32.6367 252.697 35.0273 254.525 36.8555C256.354 38.7188 259.096 39.6328 262.752 39.6328ZM307.912 48H297.225L303.377 20.9297H287.662L289.526 11.9297H331.221L329.287 20.9297H314.03L307.912 48ZM350.366 11.0508C357.186 11.0508 362.459 12.8086 366.186 16.3242C369.877 19.875 371.178 24.3398 370.088 29.7891L369.526 33.0234H337.709C337.815 37.418 341.612 40.2305 347.834 40.2305C353.284 40.2305 356.623 38.8242 357.784 35.9766H368.963C366.362 44.5898 359.295 48.8789 347.764 48.8789C340.803 48.8789 335.459 47.0156 331.733 43.2539C327.971 39.4922 326.705 34.7461 327.901 28.9805L328.182 27.6094C329.131 22.3359 331.557 18.2578 335.424 15.375C339.291 12.4922 344.284 11.0508 350.366 11.0508ZM350.014 19.6289C344.424 19.6289 340.873 21.5977 339.291 25.5352H359.858C359.295 21.8789 355.674 19.6289 350.014 19.6289ZM409.905 11.9297H422.21L421.858 13.4414L403.928 30.3516L415.389 46.4883L415.003 48H404.42L394.647 34.2539H385.717L382.624 48H372.042L380.092 11.9297H390.674L387.651 25.3945H395.596L409.905 11.9297ZM461.991 39.0703H465.014L463.116 48H458.018C453.905 48 451.022 46.6289 449.37 43.8867C445.257 47.1914 439.878 48.8438 433.268 48.8789C427.995 48.8789 424.022 47.7539 421.385 45.5391C418.749 43.3242 417.835 40.3711 418.714 36.6797C420.085 30.9141 424.971 28.3477 432.952 27.5391L450.952 25.7461C451.128 22.0898 447.964 20.0508 442.022 20.0508C436.257 20.0508 432.354 22.0195 431.897 25.1133L431.827 25.3242H421.139L421.245 25.1133C421.983 20.7539 424.233 17.3086 428.065 14.8125C431.862 12.3164 436.749 11.0508 442.69 11.0508C449.335 11.0508 454.327 12.5625 457.737 15.6211C461.147 18.6797 462.272 22.6523 461.182 27.6094L459.319 36.1875C458.897 38.1211 459.776 39.0703 461.991 39.0703ZM428.803 37.6992C428.417 39.8086 430.315 40.793 434.534 40.793C437.522 40.793 440.3 40.3008 442.936 39.3516C445.573 38.4023 447.577 37.1367 449.018 35.5547L449.581 32.8828L433.901 34.5352C430.772 34.8516 429.085 35.9062 428.803 37.6992Z" fill="url(#paint0_linear_1_1526)"/>
<path d="M46.0208 0.785156H59.4856L59.0989 2.4375L34.138 24.2344L48.3059 46.3477L47.9544 48H37.0208L24.9973 28.8398H15.2591L11.0052 48H0.00125122L10.513 0.785156H21.5169L17.3684 19.418H25.2786L46.0208 0.785156ZM63.8647 48H54.3022L62.353 11.9297H72.5131L67.6967 34.5352L93.6069 11.9297H103.169L95.1186 48H84.9584L89.7748 25.4648L63.8647 48ZM125.865 48.8789C118.658 48.8789 113.173 46.9453 109.412 43.1133C105.65 39.2812 104.384 34.3945 105.615 28.4883L105.826 27.5391C106.845 22.2656 109.236 18.1875 113.068 15.3398C116.9 12.4922 121.857 11.0508 127.939 11.0508C134.373 11.0508 139.505 12.668 143.408 15.8672C147.31 19.1016 148.857 23.0391 148.119 27.6797L148.048 27.9961H137.291L137.361 27.6797C137.748 25.5703 137.045 23.8125 135.252 22.4414C133.459 21.0703 130.963 20.3672 127.798 20.3672C121.295 20.3672 117.181 23.3203 116.197 28.9102L115.986 29.7891C115.353 32.8125 115.951 35.2031 117.779 36.9609C119.607 38.7539 122.42 39.6328 126.216 39.6328C131.806 39.6328 135.568 37.2773 136.166 33.4453L136.236 33.1641H147.17V33.4453C146.396 38.2617 144.111 42.0234 140.349 44.7656C136.552 47.5078 131.736 48.8789 125.865 48.8789ZM171.939 48.8789C164.732 48.8789 159.248 46.9453 155.486 43.1133C151.724 39.2812 150.459 34.3945 151.689 28.4883L151.9 27.5391C152.92 22.2656 155.31 18.1875 159.142 15.3398C162.974 12.4922 167.931 11.0508 174.013 11.0508C180.447 11.0508 185.58 12.668 189.482 15.8672C193.385 19.1016 194.931 23.0391 194.193 27.6797L194.123 27.9961H183.365L183.435 27.6797C183.822 25.5703 183.119 23.8125 181.326 22.4414C179.533 21.0703 177.037 20.3672 173.873 20.3672C167.369 20.3672 163.256 23.3203 162.271 28.9102L162.06 29.7891C161.428 32.8125 162.025 35.2031 163.853 36.9609C165.681 38.7539 168.494 39.6328 172.291 39.6328C177.881 39.6328 181.642 37.2773 182.24 33.4453L182.31 33.1641H193.244V33.4453C192.47 38.2617 190.185 42.0234 186.424 44.7656C182.627 47.5078 177.81 48.8789 171.939 48.8789ZM233.482 11.9297H245.787L245.435 13.4414L227.506 30.3516L238.967 46.4883L238.58 48H227.998L218.225 34.2539H209.295L206.201 48H195.619L203.67 11.9297H214.252L211.228 25.3945H219.174L233.482 11.9297ZM262.611 48.8789C255.475 48.8789 249.99 47.0156 246.158 43.2539C242.326 39.4922 240.99 34.7109 242.08 28.8398L242.291 27.9258C243.24 22.6172 245.666 18.4688 249.498 15.4805C253.33 12.5273 258.357 11.0508 264.545 11.0508C271.682 11.0508 277.166 12.9492 280.928 16.7109C284.69 20.4727 286.025 25.3242 284.865 31.2305L284.725 32.1445C283.775 37.4531 281.385 41.5664 277.553 44.4844C273.721 47.4023 268.764 48.8789 262.611 48.8789ZM262.752 39.6328C268.975 39.6328 273.053 36.6797 274.143 31.3008L274.283 30.4922C274.916 27.4336 274.318 24.9727 272.525 23.1094C270.732 21.2812 267.99 20.3672 264.334 20.3672C257.76 20.3672 253.928 23.1797 252.873 28.7695L252.732 29.6484C252.1 32.6367 252.697 35.0273 254.525 36.8555C256.354 38.7188 259.096 39.6328 262.752 39.6328ZM307.912 48H297.225L303.377 20.9297H287.662L289.526 11.9297H331.221L329.287 20.9297H314.03L307.912 48ZM350.366 11.0508C357.186 11.0508 362.459 12.8086 366.186 16.3242C369.877 19.875 371.178 24.3398 370.088 29.7891L369.526 33.0234H337.709C337.815 37.418 341.612 40.2305 347.834 40.2305C353.284 40.2305 356.623 38.8242 357.784 35.9766H368.963C366.362 44.5898 359.295 48.8789 347.764 48.8789C340.803 48.8789 335.459 47.0156 331.733 43.2539C327.971 39.4922 326.705 34.7461 327.901 28.9805L328.182 27.6094C329.131 22.3359 331.557 18.2578 335.424 15.375C339.291 12.4922 344.284 11.0508 350.366 11.0508ZM350.014 19.6289C344.424 19.6289 340.873 21.5977 339.291 25.5352H359.858C359.295 21.8789 355.674 19.6289 350.014 19.6289ZM409.905 11.9297H422.21L421.858 13.4414L403.928 30.3516L415.389 46.4883L415.003 48H404.42L394.647 34.2539H385.717L382.624 48H372.042L380.092 11.9297H390.674L387.651 25.3945H395.596L409.905 11.9297ZM461.991 39.0703H465.014L463.116 48H458.018C453.905 48 451.022 46.6289 449.37 43.8867C445.257 47.1914 439.878 48.8438 433.268 48.8789C427.995 48.8789 424.022 47.7539 421.385 45.5391C418.749 43.3242 417.835 40.3711 418.714 36.6797C420.085 30.9141 424.971 28.3477 432.952 27.5391L450.952 25.7461C451.128 22.0898 447.964 20.0508 442.022 20.0508C436.257 20.0508 432.354 22.0195 431.897 25.1133L431.827 25.3242H421.139L421.245 25.1133C421.983 20.7539 424.233 17.3086 428.065 14.8125C431.862 12.3164 436.749 11.0508 442.69 11.0508C449.335 11.0508 454.327 12.5625 457.737 15.6211C461.147 18.6797 462.272 22.6523 461.182 27.6094L459.319 36.1875C458.897 38.1211 459.776 39.0703 461.991 39.0703ZM428.803 37.6992C428.417 39.8086 430.315 40.793 434.534 40.793C437.522 40.793 440.3 40.3008 442.936 39.3516C445.573 38.4023 447.577 37.1367 449.018 35.5547L449.581 32.8828L433.901 34.5352C430.772 34.8516 429.085 35.9062 428.803 37.6992Z" fill="url(#paint1_linear_1_1526)"/>
<defs>
<linearGradient id="paint0_linear_1_1526" x1="233" y1="48.0001" x2="233" y2="-8.49988" gradientUnits="userSpaceOnUse">
<stop stop-color="#FFC4E5"/>
<stop offset="1" stop-color="#FDFF72"/>
</linearGradient>
<linearGradient id="paint1_linear_1_1526" x1="233.9" y1="73.7671" x2="233.9" y2="24.9594" gradientUnits="userSpaceOnUse">
<stop stop-color="#FFC4E5"/>
<stop offset="1" stop-color="#FDFF72"/>
</linearGradient>
</defs>
</svg>
