<svg width="34" height="34" viewBox="0 0 34 34" fill="none" xmlns="http://www.w3.org/2000/svg">
<path fill-rule="evenodd" clip-rule="evenodd" d="M6 0C2.68629 0 0 2.68629 0 6V28C0 31.3137 2.68629 34 6 34H28C31.3137 34 34 31.3137 34 28V6C34 2.68629 31.3137 0 28 0H6ZM22.3376 3.89245C22.2219 3.38511 21.4969 3.38511 21.3812 3.89245L21.2442 4.49312C20.4773 7.85561 17.8435 10.4813 14.4708 11.2459L13.8683 11.3825C13.3594 11.4979 13.3594 12.2206 13.8683 12.336L14.4708 12.4726C17.8435 13.2372 20.4773 15.8629 21.2442 19.2254L21.3812 19.826C21.4969 20.3334 22.2219 20.3334 22.3376 19.826L22.4746 19.2254C23.2415 15.8629 25.8752 13.2372 29.248 12.4726L29.8505 12.336C30.3594 12.2206 30.3594 11.4979 29.8505 11.3825L29.248 11.2459C25.8752 10.4813 23.2415 7.85561 22.4746 4.49312L22.3376 3.89245ZM10.1591 17.2587C10.2379 16.9138 10.7315 16.9138 10.8103 17.2587L10.9036 17.6671C11.4257 19.9532 13.2189 21.7383 15.5152 22.2582L15.9254 22.351C16.2719 22.4295 16.2719 22.9208 15.9254 22.9993L15.5152 23.0921C13.2189 23.612 11.4257 25.3971 10.9036 27.6832L10.8103 28.0916C10.7315 28.4365 10.2379 28.4365 10.1591 28.0916L10.0658 27.6832C9.54368 25.3971 7.7505 23.612 5.45417 23.0921L5.04395 22.9993C4.69748 22.9208 4.69748 22.4295 5.04395 22.351L5.45417 22.2582C7.7505 21.7383 9.54368 19.9532 10.0658 17.6671L10.1591 17.2587ZM30.1421 30.1738L28.6959 21.9292C28.575 21.2401 27.8784 20.8122 27.2091 21.0159C26.5249 21.2241 26.188 21.9937 26.4993 22.6376L30.1421 30.1738ZM29.4058 30.7052L23.2923 24.9876C22.7814 24.5097 21.9674 24.5867 21.5552 25.1519C21.1337 25.7297 21.3274 26.5472 21.9633 26.8745L29.4058 30.7052Z" fill="#FF3E00"/>
</svg>
