<svg width="16" height="16" viewBox="0 0 16 16" fill="none" xmlns="http://www.w3.org/2000/svg">
<path fill-rule="evenodd" clip-rule="evenodd" d="M16 8C16 12.4183 12.4183 16 8 16C3.58172 16 0 12.4183 0 8C0 3.58172 3.58172 0 8 0C12.4183 0 16 3.58172 16 8ZM8.28612 5.90556C7.508 6.22924 5.95284 6.89908 3.62069 7.91516C3.24198 8.06576 3.0436 8.21312 3.02554 8.35716C2.99502 8.60064 3.2999 8.69648 3.71508 8.82704C3.77155 8.8448 3.83007 8.8632 3.89006 8.88272C4.29852 9.01548 4.848 9.1708 5.13364 9.177C5.39272 9.1826 5.68192 9.07576 6.0012 8.85652C8.1802 7.38564 9.305 6.64216 9.37564 6.62612C9.42544 6.61484 9.49448 6.6006 9.54128 6.6422C9.58804 6.68376 9.58344 6.76252 9.57848 6.78364C9.54828 6.9124 8.35152 8.02504 7.73216 8.60084C7.53908 8.78032 7.40216 8.90764 7.37416 8.93672C7.31144 9.00188 7.24752 9.06348 7.18608 9.12268C6.8066 9.48852 6.52204 9.76284 7.20184 10.2108C7.52852 10.4261 7.78992 10.6041 8.05072 10.7817C8.33556 10.9757 8.6196 11.1691 8.98716 11.4101C9.0808 11.4714 9.17024 11.5352 9.25736 11.5973C9.5888 11.8336 9.8866 12.0459 10.2545 12.012C10.4683 11.9924 10.6891 11.7914 10.8012 11.1919C11.0662 9.77504 11.5872 6.70528 11.7076 5.44028C11.7181 5.32944 11.7048 5.1876 11.6942 5.12536C11.6836 5.06308 11.6613 4.97436 11.5804 4.90868C11.4845 4.83092 11.3365 4.81452 11.2704 4.81568C10.9694 4.821 10.5078 4.98152 8.28612 5.90556Z" fill="#FFD9FF"/>
</svg>
