<svg width="20" height="20" viewBox="0 0 20 20" fill="none" xmlns="http://www.w3.org/2000/svg">
<path fill-rule="evenodd" clip-rule="evenodd" d="M20 10C20 15.5229 15.5229 20 10 20C4.47715 20 0 15.5229 0 10C0 4.47715 4.47715 0 10 0C15.5229 0 20 4.47715 20 10ZM10.3576 7.38195C9.385 7.78655 7.44105 8.62385 4.52587 9.89395C4.05248 10.0822 3.80451 10.2664 3.78193 10.4465C3.74378 10.7508 4.12488 10.8706 4.64385 11.0338C4.71444 11.056 4.78758 11.079 4.86257 11.1034C5.37315 11.2694 6.06 11.4635 6.41705 11.4712C6.7409 11.4782 7.1024 11.3447 7.5015 11.0707C10.2253 9.23205 11.6313 8.3027 11.7196 8.28265C11.7818 8.26855 11.8681 8.25075 11.9266 8.30275C11.9851 8.3547 11.9793 8.45315 11.9731 8.47955C11.9354 8.6405 10.4394 10.0313 9.6652 10.751C9.42385 10.9754 9.2527 11.1346 9.2177 11.1709C9.1393 11.2524 9.0594 11.3293 8.9826 11.4033C8.50825 11.8607 8.15255 12.2036 9.0023 12.7635C9.41065 13.0326 9.7374 13.2551 10.0634 13.4771C10.4195 13.7196 10.7745 13.9614 11.234 14.2626C11.351 14.3393 11.4628 14.419 11.5717 14.4967C11.986 14.792 12.3582 15.0574 12.8181 15.015C13.0854 14.9905 13.3614 14.7392 13.5015 13.9899C13.8328 12.2188 14.484 8.3816 14.6344 6.80035C14.6476 6.6618 14.6311 6.4845 14.6178 6.4067C14.6045 6.32885 14.5766 6.21795 14.4755 6.13585C14.3556 6.03865 14.1707 6.01815 14.0879 6.0196C13.7118 6.02625 13.1348 6.2269 10.3576 7.38195Z" fill="#FB339A"/>
</svg>
