<svg width="231" height="268" viewBox="0 0 231 268" fill="none" xmlns="http://www.w3.org/2000/svg">
<path fill-rule="evenodd" clip-rule="evenodd" d="M59.2478 140.693L54.4623 137.175C43.4976 129.114 47.6273 111.814 61.0525 109.568L71.9996 107.737C74.8017 107.268 77.42 106.033 79.5647 104.167L87.1935 97.5294C97.4924 88.569 113.476 96.4494 112.645 110.078L112.327 115.29C112.294 115.831 112.986 116.081 113.307 115.644L116.397 111.436C124.478 100.43 141.804 104.6 143.986 118.076L145.602 128.058C146.057 130.864 147.278 133.489 149.132 135.642L156.373 144.054C165.254 154.369 157.359 170.307 143.775 169.487L137.846 169.129C137.306 169.096 137.055 169.788 137.492 170.108L142.277 173.627C153.242 181.688 149.112 198.988 135.687 201.233L124.74 203.065C121.938 203.533 119.319 204.769 117.175 206.635L109.546 213.272C99.2468 222.233 83.2633 214.352 84.0944 200.724L84.4122 195.512C84.4452 194.971 83.753 194.721 83.4325 195.157L80.342 199.366C72.261 210.372 54.9353 206.201 52.7533 192.726L51.1371 182.744C50.6827 179.937 49.4611 177.312 47.6075 175.159L40.366 166.748C31.4852 156.432 39.38 140.495 52.9646 141.315L58.8934 141.673C59.4337 141.706 59.6839 141.014 59.2478 140.693ZM109.798 159.481C110.71 156.963 106.29 153.055 99.9267 150.753C93.5635 148.451 87.6664 148.626 86.7553 151.145C85.8441 153.663 90.2639 157.571 96.6271 159.873C102.99 162.175 108.887 162 109.798 159.481Z" fill="url(#paint0_linear_2874_1055)"/>
<path d="M196.469 8.8972L195.891 11.7254C193.908 21.4309 188.476 30.0896 180.601 36.0991L178.306 37.8502L181.134 38.4281C190.84 40.4113 199.498 45.843 205.508 53.718L207.259 56.0128L207.837 53.1846C209.82 43.4791 215.252 34.8204 223.127 28.8109L225.422 27.0597L222.593 26.4818C212.888 24.4987 204.229 19.067 198.22 11.192L196.469 8.8972Z" fill="url(#paint1_linear_2874_1055)"/>
<path d="M17.8103 3.11292L16.8996 4.2197C13.7744 8.0179 9.37911 10.5555 4.52715 11.3629L3.11332 11.5982L4.2201 12.5089C8.0183 15.6341 10.5559 20.0294 11.3633 24.8813L11.5986 26.2951L12.5093 25.1884C15.6345 21.3902 20.0298 18.8526 24.8817 18.0451L26.2955 17.8099L25.1888 16.8992C21.3906 13.774 18.853 9.37871 18.0455 4.52676L17.8103 3.11292Z" fill="url(#paint2_linear_2874_1055)"/>
<path d="M96.4503 252.004L96.361 252.836C96.0545 255.689 94.725 258.334 92.6185 260.282L92.0047 260.85L92.836 260.939C95.6888 261.245 98.334 262.575 100.282 264.681L100.85 265.295L100.939 264.464C101.246 261.611 102.575 258.966 104.682 257.018L105.295 256.45L104.464 256.361C101.611 256.054 98.9661 254.725 97.018 252.618L96.4503 252.004Z" fill="url(#paint3_linear_2874_1055)"/>
<defs>
<linearGradient id="paint0_linear_2874_1055" x1="123.005" y1="87.3065" x2="81.4952" y2="202.404" gradientUnits="userSpaceOnUse">
<stop stop-color="#FFC4E5"/>
<stop offset="1" stop-color="#FB339A"/>
</linearGradient>
<linearGradient id="paint1_linear_2874_1055" x1="196.469" y1="8.8972" x2="207.259" y2="56.0128" gradientUnits="userSpaceOnUse">
<stop stop-color="#FDFF72"/>
<stop offset="1" stop-color="#FFC4E5"/>
</linearGradient>
<linearGradient id="paint2_linear_2874_1055" x1="17.8103" y1="3.11292" x2="11.5986" y2="26.2951" gradientUnits="userSpaceOnUse">
<stop stop-color="#FDFF72"/>
<stop offset="1" stop-color="#FFC4E5"/>
</linearGradient>
<linearGradient id="paint3_linear_2874_1055" x1="96.4503" y1="252.004" x2="100.85" y2="265.295" gradientUnits="userSpaceOnUse">
<stop stop-color="#FDFF72"/>
<stop offset="1" stop-color="#FFC4E5"/>
</linearGradient>
</defs>
</svg>
