<svg width="300" height="226" viewBox="0 0 300 226" fill="none" xmlns="http://www.w3.org/2000/svg">
<path d="M3.61426 137.534C21.259 148.287 50.0619 156.865 85.0722 161.663C91.4519 187.997 102.856 209.662 117.151 222.934C60.6783 213.448 16.2258 180.012 3.61426 137.534Z" fill="url(#paint0_linear_2245_943)"/>
<path d="M296.387 137.529C278.74 148.288 249.946 156.863 214.93 161.664C218.576 146.676 220.587 130.161 220.587 112.825C220.587 95.4901 218.575 78.9763 214.93 63.9879C249.939 68.7921 278.742 77.3642 296.387 88.1163C298.752 96.0708 300 104.34 300 112.826C300 121.312 298.751 129.581 296.387 137.529Z" fill="url(#paint1_linear_2245_943)"/>
<path d="M209.617 9.27056C253.067 23.438 285.844 52.6245 296.387 88.1172C278.742 77.365 249.939 68.7929 214.93 63.9887C210.676 46.4307 204.19 30.9479 196.094 18.6455C192.055 12.5006 187.621 7.13924 182.851 2.71732C192.129 4.27364 201.078 6.47906 209.617 9.27056Z" fill="url(#paint2_linear_2245_943)"/>
<path d="M117.146 2.71726C102.852 15.9886 91.4476 37.6534 85.0679 63.9873C104.995 61.2452 126.95 59.7321 149.998 59.7321C152.05 59.7321 154.094 59.7445 156.13 59.7692C176.936 60.01 196.774 61.4916 214.927 63.9866C210.674 46.4292 204.188 30.9468 196.092 18.6448C192.053 12.4998 187.619 7.13857 182.849 2.71668C172.282 0.938038 161.287 -0.000775388 149.998 -0.000775388C138.708 -0.000775388 127.713 0.938615 117.146 2.71726Z" fill="url(#paint3_linear_2245_943)"/>
<path d="M85.0721 63.9881C50.0619 68.7929 21.259 77.365 3.61426 88.1172C16.2258 45.6458 60.6783 12.2041 117.15 2.71799C102.856 15.9893 91.4518 37.6542 85.0721 63.9881Z" fill="url(#paint4_linear_2245_943)"/>
<path d="M214.928 161.664C195.001 164.406 173.047 165.919 150 165.919C144.901 165.919 139.852 165.845 134.868 165.697C117.339 165.191 100.589 163.802 85.0713 161.666C91.451 187.999 102.856 209.664 117.15 222.935C127.717 224.714 138.71 225.652 150 225.652C155.419 225.652 160.764 225.436 166.035 225.01C171.742 224.559 177.358 223.861 182.851 222.935C197.146 209.663 208.55 187.998 214.93 161.665C214.929 161.665 214.928 161.665 214.928 161.664Z" fill="url(#paint5_linear_2245_943)"/>
<path d="M214.929 63.986C218.575 78.9748 220.587 95.489 220.587 112.825C220.587 130.16 218.575 146.675 214.929 161.663C195.002 164.405 173.047 165.918 150 165.918C144.901 165.918 139.851 165.844 134.867 165.696C117.338 165.189 100.588 163.801 85.0697 161.664C81.4242 146.675 79.4126 130.161 79.4126 112.825C79.4126 95.4897 81.4242 78.9755 85.0697 63.9867C104.997 61.2446 126.952 59.7315 150 59.7315C152.052 59.7315 154.096 59.7439 156.132 59.7685V59.7685C176.938 60.0094 196.776 61.4909 214.929 63.986Z" fill="url(#paint6_linear_2245_943)"/>
<path d="M182.851 222.934C197.145 209.662 208.55 187.997 214.93 161.663C249.946 156.862 278.74 148.288 296.387 137.528C283.775 180.006 239.323 213.448 182.851 222.934Z" fill="url(#paint7_linear_2245_943)"/>
<path d="M79.4135 112.826C79.4135 130.161 81.425 146.675 85.0704 161.664C50.0607 156.865 21.258 148.287 3.61352 137.535C1.24885 129.587 0 121.317 0 112.825C0 104.34 1.24802 96.0702 3.61269 88.1156C21.2574 77.3635 50.0604 68.7921 85.0706 63.9873C81.4251 78.9761 79.4135 95.4904 79.4135 112.826Z" fill="url(#paint8_linear_2245_943)"/>
<mask id="path-10-inside-1_2245_943" fill="white">
<path fill-rule="evenodd" clip-rule="evenodd" d="M3.61503 137.539C16.2276 180.015 60.6795 213.45 117.151 222.935L117.151 222.935C127.718 224.714 138.711 225.652 150 225.652C155.419 225.652 160.764 225.436 166.035 225.01C171.742 224.559 177.358 223.861 182.851 222.935L182.935 222.857C182.907 222.883 182.88 222.909 182.852 222.935C239.324 213.45 283.776 180.008 296.388 137.53L296.387 137.53C298.752 129.582 300 121.314 300 112.829C300 104.343 298.752 96.0735 296.387 88.119L296.209 88.0107C296.27 88.0445 296.33 88.0792 296.389 88.1149C285.846 52.6222 253.069 23.4357 209.62 9.26829C201.08 6.4768 192.131 4.27137 182.853 2.71505C182.885 2.74507 182.915 2.77503 182.943 2.805L182.849 2.71746C172.282 0.938813 161.287 0 149.998 0C138.708 0 127.713 0.93939 117.146 2.71804L117.143 2.72023C60.6751 12.2079 16.226 45.6481 3.61457 88.1172C3.61394 88.1176 3.61331 88.118 3.61269 88.1184C1.24802 96.0729 0 104.342 0 112.828C0 121.32 1.24885 129.589 3.61352 137.538C3.61403 137.538 3.61453 137.538 3.61503 137.539Z"/>
</mask>
<path d="M5.41098 137.004L5.41039 137.002L1.81665 138.073L1.81724 138.075L5.41098 137.004ZM3.61503 137.539L7.2099 136.471C6.94401 135.576 6.3535 134.812 5.55396 134.329L3.61503 137.539ZM117.151 222.935L116.53 226.634C118.166 226.908 119.788 226.076 120.518 224.586C121.248 223.097 120.914 221.305 119.695 220.18L117.151 222.935ZM117.151 222.935L117.773 219.237C116.137 218.962 114.515 219.794 113.784 221.284C113.054 222.773 113.388 224.565 114.607 225.691L117.151 222.935ZM166.035 225.01L165.74 221.272L165.733 221.272L166.035 225.01ZM182.851 222.935L183.475 226.633C184.197 226.511 184.868 226.18 185.405 225.681L182.851 222.935ZM182.935 222.857L185.522 225.572C187.015 224.149 187.079 221.788 185.665 220.287C184.252 218.785 181.891 218.707 180.381 220.111L182.935 222.857ZM182.852 222.935L180.3 220.187C179.086 221.314 178.756 223.105 179.487 224.591C180.219 226.078 181.839 226.908 183.473 226.634L182.852 222.935ZM296.388 137.53L299.983 138.597C300.423 137.115 299.908 135.514 298.685 134.566C297.463 133.619 295.785 133.519 294.458 134.314L296.388 137.53ZM296.387 137.53L292.793 136.461C292.352 137.944 292.866 139.545 294.089 140.493C295.311 141.441 296.99 141.542 298.317 140.746L296.387 137.53ZM296.387 88.119L299.981 87.0505C299.716 86.1587 299.129 85.3973 298.334 84.9142L296.387 88.119ZM296.209 88.0107L298.013 84.7235C296.226 83.7423 293.982 84.369 292.962 86.1343C291.942 87.8997 292.519 90.1567 294.261 91.2155L296.209 88.0107ZM296.389 88.1149L294.437 91.3169C295.762 92.1244 297.447 92.0328 298.676 91.0864C299.906 90.1401 300.425 88.5344 299.984 87.0472L296.389 88.1149ZM209.62 9.26829L208.454 12.8327L208.457 12.8335L209.62 9.26829ZM182.853 2.71505L183.473 -0.983274C181.839 -1.25741 180.218 -0.426381 179.487 1.06078C178.756 2.54793 179.088 4.33858 180.303 5.46515L182.853 2.71505ZM182.943 2.805L180.391 5.55286C181.869 6.9252 184.167 6.88303 185.594 5.4574C187.02 4.03177 187.064 1.73328 185.692 0.254732L182.943 2.805ZM182.849 2.71746L185.401 -0.030396C184.864 -0.528684 184.193 -0.858978 183.471 -0.98052L182.849 2.71746ZM117.146 2.71804L116.523 -0.979943C115.801 -0.858301 115.129 -0.527567 114.593 -0.0286161L117.146 2.71804ZM117.143 2.72023L117.765 6.4184C118.488 6.2969 119.159 5.96609 119.696 5.46689L117.143 2.72023ZM3.61457 88.1172L5.56738 91.3186C6.36002 90.8351 6.94511 90.0748 7.20941 89.1847L3.61457 88.1172ZM3.61269 88.1184L1.65987 84.917C0.86756 85.4003 0.282614 86.1602 0.0181574 87.0498L3.61269 88.1184ZM3.61352 137.538L0.0192142 138.607C0.285379 139.502 0.875632 140.265 1.67459 140.748L3.61352 137.538ZM0.0201678 138.606C13.165 182.875 59.1364 216.993 116.53 226.634L117.772 219.237C62.2225 209.907 19.2903 177.155 7.2099 136.471L0.0201678 138.606ZM119.695 220.18L119.695 220.18L114.607 225.691L114.608 225.691L119.695 220.18ZM116.529 226.633C127.302 228.446 138.503 229.402 150 229.402V221.902C138.918 221.902 128.134 220.981 117.773 219.237L116.529 226.633ZM150 229.402C155.519 229.402 160.965 229.182 166.338 228.748L165.733 221.272C160.564 221.69 155.319 221.902 150 221.902V229.402ZM166.331 228.748C172.147 228.289 177.873 227.578 183.475 226.633L182.227 219.237C176.843 220.145 171.336 220.83 165.74 221.272L166.331 228.748ZM185.405 225.681L185.489 225.603L180.381 220.111L180.297 220.189L185.405 225.681ZM180.348 220.142C180.332 220.158 180.316 220.173 180.3 220.187L185.403 225.684C185.443 225.646 185.483 225.609 185.522 225.572L180.348 220.142ZM183.473 226.634C240.867 216.993 286.839 182.867 299.983 138.597L292.793 136.463C280.713 177.148 237.78 209.907 182.231 219.237L183.473 226.634ZM294.458 134.314L294.458 134.315L298.317 140.746L298.317 140.746L294.458 134.314ZM299.982 138.6C302.447 130.313 303.75 121.685 303.75 112.829H296.25C296.25 120.943 295.057 128.851 292.793 136.461L299.982 138.6ZM303.75 112.829C303.75 103.972 302.447 95.3427 299.981 87.0505L292.792 89.1876C295.057 96.8043 296.25 104.714 296.25 112.829H303.75ZM298.334 84.9142L298.156 84.8059L294.261 91.2155L294.44 91.3238L298.334 84.9142ZM294.404 91.2979C294.418 91.3053 294.428 91.3117 294.437 91.3169L298.341 84.9129C298.232 84.8468 298.123 84.7837 298.013 84.7235L294.404 91.2979ZM299.984 87.0472C288.994 50.0487 255.041 20.1342 210.782 5.70303L208.457 12.8335C251.098 26.7372 282.699 55.1957 292.794 89.1827L299.984 87.0472ZM210.785 5.70392C202.065 2.85331 192.933 0.603532 183.473 -0.983274L182.232 6.41338C191.329 7.93921 200.096 10.1003 208.454 12.8327L210.785 5.70392ZM180.303 5.46515C180.272 5.43575 180.235 5.39924 180.194 5.35527L185.692 0.254732C185.596 0.150822 185.499 0.0543938 185.402 -0.0350433L180.303 5.46515ZM185.495 0.0571475L185.401 -0.030396L180.297 5.46531L180.391 5.55286L185.495 0.0571475ZM183.471 -0.98052C172.698 -2.79393 161.495 -3.75 149.998 -3.75V3.75C161.08 3.75 171.866 4.67156 182.226 6.41544L183.471 -0.98052ZM149.998 -3.75C138.5 -3.75 127.297 -2.79334 116.523 -0.979943L117.768 6.41602C128.129 4.67212 138.916 3.75 149.998 3.75V-3.75ZM114.593 -0.0286161L114.59 -0.0264176L119.696 5.46689L119.699 5.46469L114.593 -0.0286161ZM116.522 -0.977927C59.1317 8.66464 13.1633 42.7885 0.019721 87.0497L7.20941 89.1847C19.2887 48.5077 62.2184 15.7511 117.765 6.4184L116.522 -0.977927ZM5.56551 91.3198C5.56598 91.3195 5.56643 91.3192 5.56672 91.319C5.56705 91.3188 5.56723 91.3187 5.56738 91.3186L1.66175 84.9158C1.66128 84.9161 1.66083 84.9164 1.66054 84.9166C1.6602 84.9168 1.66002 84.9169 1.65987 84.917L5.56551 91.3198ZM3.75 112.828C3.75 104.714 4.94296 96.8037 7.20722 89.1869L0.0181574 87.0498C-2.44692 95.3421 -3.75 103.971 -3.75 112.828H3.75ZM7.20783 136.469C4.9438 128.858 3.75 120.949 3.75 112.828H-3.75C-3.75 121.691 -2.4461 130.321 0.0192142 138.607L7.20783 136.469ZM5.55396 134.329C5.55449 134.329 5.55491 134.329 5.55455 134.329C5.55441 134.329 5.55348 134.329 5.55245 134.328L1.67459 140.748C1.67406 140.747 1.67364 140.747 1.67401 140.747C1.67415 140.747 1.67507 140.748 1.67611 140.749L5.55396 134.329Z" fill="url(#paint9_linear_2245_943)" mask="url(#path-10-inside-1_2245_943)"/>
<mask id="path-12-inside-2_2245_943" fill="white">
<path fill-rule="evenodd" clip-rule="evenodd" d="M3.61503 137.539C16.2276 180.015 60.6795 213.45 117.151 222.935L117.151 222.935C127.718 224.714 138.711 225.652 150 225.652C155.419 225.652 160.764 225.436 166.035 225.01C171.742 224.559 177.358 223.861 182.851 222.935L182.935 222.857C182.907 222.883 182.88 222.909 182.852 222.935C239.324 213.45 283.776 180.008 296.388 137.53L296.387 137.53C298.752 129.582 300 121.314 300 112.829C300 104.343 298.752 96.0735 296.387 88.119L296.209 88.0107C296.27 88.0445 296.33 88.0792 296.389 88.1149C285.846 52.6222 253.069 23.4357 209.62 9.26829C201.08 6.4768 192.131 4.27137 182.853 2.71505C182.885 2.74507 182.915 2.77503 182.943 2.805L182.849 2.71746C172.282 0.938813 161.287 0 149.998 0C138.708 0 127.713 0.93939 117.146 2.71804L117.143 2.72023C60.6751 12.2079 16.226 45.6481 3.61457 88.1172C3.61394 88.1176 3.61331 88.118 3.61269 88.1184C1.24802 96.0729 0 104.342 0 112.828C0 121.32 1.24885 129.589 3.61352 137.538C3.61403 137.538 3.61453 137.538 3.61503 137.539Z"/>
</mask>
<path d="M5.41098 137.004L5.41039 137.002L1.81665 138.073L1.81724 138.075L5.41098 137.004ZM3.61503 137.539L7.2099 136.471C6.94401 135.576 6.3535 134.812 5.55396 134.329L3.61503 137.539ZM117.151 222.935L116.53 226.634C118.166 226.908 119.788 226.076 120.518 224.586C121.248 223.097 120.914 221.305 119.695 220.18L117.151 222.935ZM117.151 222.935L117.773 219.237C116.137 218.962 114.515 219.794 113.784 221.284C113.054 222.773 113.388 224.565 114.607 225.691L117.151 222.935ZM166.035 225.01L165.74 221.272L165.733 221.272L166.035 225.01ZM182.851 222.935L183.475 226.633C184.197 226.511 184.868 226.18 185.405 225.681L182.851 222.935ZM182.935 222.857L185.522 225.572C187.015 224.149 187.079 221.788 185.665 220.287C184.252 218.785 181.891 218.707 180.381 220.111L182.935 222.857ZM182.852 222.935L180.3 220.187C179.086 221.314 178.756 223.105 179.487 224.591C180.219 226.078 181.839 226.908 183.473 226.634L182.852 222.935ZM296.388 137.53L299.983 138.597C300.423 137.115 299.908 135.514 298.685 134.566C297.463 133.619 295.785 133.519 294.458 134.314L296.388 137.53ZM296.387 137.53L292.793 136.461C292.352 137.944 292.866 139.545 294.089 140.493C295.311 141.441 296.99 141.542 298.317 140.746L296.387 137.53ZM296.387 88.119L299.981 87.0505C299.716 86.1587 299.129 85.3973 298.334 84.9142L296.387 88.119ZM296.209 88.0107L298.013 84.7235C296.226 83.7423 293.982 84.369 292.962 86.1343C291.942 87.8997 292.519 90.1567 294.261 91.2155L296.209 88.0107ZM296.389 88.1149L294.437 91.3169C295.762 92.1244 297.447 92.0328 298.676 91.0864C299.906 90.1401 300.425 88.5344 299.984 87.0472L296.389 88.1149ZM209.62 9.26829L208.454 12.8327L208.457 12.8335L209.62 9.26829ZM182.853 2.71505L183.473 -0.983274C181.839 -1.25741 180.218 -0.426381 179.487 1.06078C178.756 2.54793 179.088 4.33858 180.303 5.46515L182.853 2.71505ZM182.943 2.805L180.391 5.55286C181.869 6.9252 184.167 6.88303 185.594 5.4574C187.02 4.03177 187.064 1.73328 185.692 0.254732L182.943 2.805ZM182.849 2.71746L185.401 -0.030396C184.864 -0.528684 184.193 -0.858978 183.471 -0.98052L182.849 2.71746ZM117.146 2.71804L116.523 -0.979943C115.801 -0.858301 115.129 -0.527567 114.593 -0.0286161L117.146 2.71804ZM117.143 2.72023L117.765 6.4184C118.488 6.2969 119.159 5.96609 119.696 5.46689L117.143 2.72023ZM3.61457 88.1172L5.56738 91.3186C6.36002 90.8351 6.94511 90.0748 7.20941 89.1847L3.61457 88.1172ZM3.61269 88.1184L1.65987 84.917C0.86756 85.4003 0.282614 86.1602 0.0181574 87.0498L3.61269 88.1184ZM3.61352 137.538L0.0192142 138.607C0.285379 139.502 0.875632 140.265 1.67459 140.748L3.61352 137.538ZM0.0201678 138.606C13.165 182.875 59.1364 216.993 116.53 226.634L117.772 219.237C62.2225 209.907 19.2903 177.155 7.2099 136.471L0.0201678 138.606ZM119.695 220.18L119.695 220.18L114.607 225.691L114.608 225.691L119.695 220.18ZM116.529 226.633C127.302 228.446 138.503 229.402 150 229.402V221.902C138.918 221.902 128.134 220.981 117.773 219.237L116.529 226.633ZM150 229.402C155.519 229.402 160.965 229.182 166.338 228.748L165.733 221.272C160.564 221.69 155.319 221.902 150 221.902V229.402ZM166.331 228.748C172.147 228.289 177.873 227.578 183.475 226.633L182.227 219.237C176.843 220.145 171.336 220.83 165.74 221.272L166.331 228.748ZM185.405 225.681L185.489 225.603L180.381 220.111L180.297 220.189L185.405 225.681ZM180.348 220.142C180.332 220.158 180.316 220.173 180.3 220.187L185.403 225.684C185.443 225.646 185.483 225.609 185.522 225.572L180.348 220.142ZM183.473 226.634C240.867 216.993 286.839 182.867 299.983 138.597L292.793 136.463C280.713 177.148 237.78 209.907 182.231 219.237L183.473 226.634ZM294.458 134.314L294.458 134.315L298.317 140.746L298.317 140.746L294.458 134.314ZM299.982 138.6C302.447 130.313 303.75 121.685 303.75 112.829H296.25C296.25 120.943 295.057 128.851 292.793 136.461L299.982 138.6ZM303.75 112.829C303.75 103.972 302.447 95.3427 299.981 87.0505L292.792 89.1876C295.057 96.8043 296.25 104.714 296.25 112.829H303.75ZM298.334 84.9142L298.156 84.8059L294.261 91.2155L294.44 91.3238L298.334 84.9142ZM294.404 91.2979C294.418 91.3053 294.428 91.3117 294.437 91.3169L298.341 84.9129C298.232 84.8468 298.123 84.7837 298.013 84.7235L294.404 91.2979ZM299.984 87.0472C288.994 50.0487 255.041 20.1342 210.782 5.70303L208.457 12.8335C251.098 26.7372 282.699 55.1957 292.794 89.1827L299.984 87.0472ZM210.785 5.70392C202.065 2.85331 192.933 0.603532 183.473 -0.983274L182.232 6.41338C191.329 7.93921 200.096 10.1003 208.454 12.8327L210.785 5.70392ZM180.303 5.46515C180.272 5.43575 180.235 5.39924 180.194 5.35527L185.692 0.254732C185.596 0.150822 185.499 0.0543938 185.402 -0.0350433L180.303 5.46515ZM185.495 0.0571475L185.401 -0.030396L180.297 5.46531L180.391 5.55286L185.495 0.0571475ZM183.471 -0.98052C172.698 -2.79393 161.495 -3.75 149.998 -3.75V3.75C161.08 3.75 171.866 4.67156 182.226 6.41544L183.471 -0.98052ZM149.998 -3.75C138.5 -3.75 127.297 -2.79334 116.523 -0.979943L117.768 6.41602C128.129 4.67212 138.916 3.75 149.998 3.75V-3.75ZM114.593 -0.0286161L114.59 -0.0264176L119.696 5.46689L119.699 5.46469L114.593 -0.0286161ZM116.522 -0.977927C59.1317 8.66464 13.1633 42.7885 0.019721 87.0497L7.20941 89.1847C19.2887 48.5077 62.2184 15.7511 117.765 6.4184L116.522 -0.977927ZM5.56551 91.3198C5.56598 91.3195 5.56643 91.3192 5.56672 91.319C5.56705 91.3188 5.56723 91.3187 5.56738 91.3186L1.66175 84.9158C1.66128 84.9161 1.66083 84.9164 1.66054 84.9166C1.6602 84.9168 1.66002 84.9169 1.65987 84.917L5.56551 91.3198ZM3.75 112.828C3.75 104.714 4.94296 96.8037 7.20722 89.1869L0.0181574 87.0498C-2.44692 95.3421 -3.75 103.971 -3.75 112.828H3.75ZM7.20783 136.469C4.9438 128.858 3.75 120.949 3.75 112.828H-3.75C-3.75 121.691 -2.4461 130.321 0.0192142 138.607L7.20783 136.469ZM5.55396 134.329C5.55449 134.329 5.55491 134.329 5.55455 134.329C5.55441 134.329 5.55348 134.329 5.55245 134.328L1.67459 140.748C1.67406 140.747 1.67364 140.747 1.67401 140.747C1.67415 140.747 1.67507 140.748 1.67611 140.749L5.55396 134.329Z" fill="url(#paint10_linear_2245_943)" mask="url(#path-12-inside-2_2245_943)"/>
<path d="M31.9181 81.8889H38.9239C39.456 81.8889 39.8994 82.1556 39.722 83.1333L35.3766 108.2H36.0861C37.6824 108.2 38.4805 104.822 40.1654 97.2667C43.1806 83.7556 47.792 81.0889 52.0487 81.0889C54.8865 81.0889 55.7733 81.8889 55.596 82.9556L54.5318 89C54.3544 89.8 53.9997 90.1556 53.5563 90.1556C51.6053 90.1556 50.7185 92.4667 49.0336 99.7556C47.6147 106.244 46.1958 110.867 43.2693 112.289C42.9146 112.467 42.4711 112.556 42.4711 112.733C42.3825 112.911 42.7372 113.089 43.0919 113.267C45.575 114.689 46.3731 119.4 45.4863 126.244C44.5108 133.533 44.5995 135.844 46.5505 135.844C46.9939 135.844 47.2599 136.2 47.1713 137L46.1071 143.044C45.9297 144.111 44.4221 144.911 41.5843 144.911C37.0616 144.911 34.0464 141.889 35.8201 128.378C36.7955 120.467 36.0861 117.089 34.4898 117.089H33.7804L29.2576 142.867C29.0803 143.844 28.5482 144.111 28.0161 144.111H20.9216C20.3895 144.111 19.8574 143.844 20.0348 142.867L30.4992 83.1333C30.6765 82.1556 31.386 81.8889 31.9181 81.8889Z" fill="url(#paint11_linear_2245_943)"/>
<path d="M59.8887 81.8889H67.0719C67.604 81.8889 67.9587 82.2444 67.7813 83.2222L62.4605 113.533L72.5701 85.2667L72.9248 83.2222C73.1022 82.2444 73.723 81.8889 74.2551 81.8889H81.4382C81.8817 81.8889 82.3251 82.2444 82.1477 83.2222L71.6833 142.956C71.5059 143.844 71.0625 144.111 70.6191 144.111H63.3473C62.8152 144.111 62.2831 143.844 62.4605 142.867L67.6927 113L57.6717 141L57.3169 142.956C57.1396 143.933 56.6962 144.111 56.1641 144.111H48.9809C48.4488 144.111 47.9167 143.844 48.0941 142.867L58.5585 83.2222C58.7358 82.2444 59.3566 81.8889 59.8887 81.8889Z" fill="url(#paint12_linear_2245_943)"/>
<path d="M97.7383 81C105.365 81 106.961 89.5333 105.542 97.4444C104.655 102.511 102.97 106.867 101.818 106.867H95.6986C95.3439 106.867 95.2552 106.6 95.3439 106.156C95.4326 105.622 96.0533 102.956 96.6741 99.3111C97.7383 93.5333 97.7383 90.4222 96.0533 90.4222C94.3684 90.4222 92.1514 95.4889 89.0475 113C86.0324 130.244 86.3871 135.578 88.072 135.578C89.757 135.578 90.8211 132.733 91.8853 126.689C92.5061 123.044 92.7721 120.556 92.8608 120.022C92.9495 119.578 93.2155 119.222 93.5703 119.222H99.6893C100.842 119.222 100.931 123.489 100.044 128.644C98.6251 136.644 94.1023 145 86.4758 145C77.519 145 76.1887 131.222 79.3813 113.089C82.5738 94.9556 89.0475 81 97.7383 81Z" fill="url(#paint13_linear_2245_943)"/>
<path d="M123.113 81C130.739 81 132.336 89.5333 130.917 97.4444C130.03 102.511 128.345 106.867 127.192 106.867H121.073C120.718 106.867 120.63 106.6 120.718 106.156C120.807 105.622 121.428 102.956 122.049 99.3111C123.113 93.5333 123.113 90.4222 121.428 90.4222C119.743 90.4222 117.526 95.4889 114.422 113C111.407 130.244 111.762 135.578 113.447 135.578C115.132 135.578 116.196 132.733 117.26 126.689C117.881 123.044 118.147 120.556 118.235 120.022C118.324 119.578 118.59 119.222 118.945 119.222H125.064C126.217 119.222 126.305 123.489 125.419 128.644C124 136.644 119.477 145 111.85 145C102.894 145 101.563 131.222 104.756 113.089C107.948 94.9556 114.422 81 123.113 81Z" fill="url(#paint14_linear_2245_943)"/>
<path d="M137.314 81.8889H144.319C144.852 81.8889 145.295 82.1556 145.118 83.1333L140.772 108.2H141.482C143.078 108.2 143.876 104.822 145.561 97.2667C148.576 83.7556 153.188 81.0889 157.444 81.0889C160.282 81.0889 161.169 81.8889 160.992 82.9556L159.927 89C159.75 89.8 159.395 90.1556 158.952 90.1556C157.001 90.1556 156.114 92.4667 154.429 99.7556C153.01 106.244 151.591 110.867 148.665 112.289C148.31 112.467 147.867 112.556 147.867 112.733C147.778 112.911 148.133 113.089 148.488 113.267C150.971 114.689 151.769 119.4 150.882 126.244C149.906 133.533 149.995 135.844 151.946 135.844C152.389 135.844 152.656 136.2 152.567 137L151.503 143.044C151.325 144.111 149.818 144.911 146.98 144.911C142.457 144.911 139.442 141.889 141.216 128.378C142.191 120.467 141.482 117.089 139.885 117.089H139.176L134.653 142.867C134.476 143.844 133.944 144.111 133.412 144.111H126.317C125.785 144.111 125.253 143.844 125.43 142.867L135.895 83.1333C136.072 82.1556 136.782 81.8889 137.314 81.8889Z" fill="url(#paint15_linear_2245_943)"/>
<path d="M174.684 90.4222C172.467 90.4222 170.871 96.2 167.856 113C164.93 129.889 164.486 135.578 166.703 135.578C169.009 135.578 170.605 129.889 173.532 113C176.547 96.2 176.99 90.4222 174.684 90.4222ZM176.369 81C184.439 81 186.656 94.0667 183.287 113.089C179.917 132.111 173.177 145 165.018 145C157.126 145 154.82 132.111 158.19 113.089C161.56 94.0667 168.477 81 176.369 81Z" fill="url(#paint16_linear_2245_943)"/>
<path d="M190.452 81.8889H211.293C212.002 81.8889 212.445 82.3333 212.268 83.2222L211.115 89.8C210.938 90.6889 210.583 91.1333 209.874 91.1333H203.932L194.798 142.867C194.62 143.844 194.088 144.111 193.556 144.111H186.373C185.93 144.111 185.398 143.844 185.575 142.867L194.709 91.1333H188.679C188.147 91.1333 187.703 90.6889 187.881 89.8L189.034 83.2222C189.211 82.3333 189.92 81.8889 190.452 81.8889Z" fill="url(#paint17_linear_2245_943)"/>
<path d="M215.17 81.8889H230.689C231.487 81.8889 231.842 82.2444 231.664 83.1333L230.511 89.8C230.334 90.6889 229.891 91.1333 229.093 91.1333H221.643L218.717 107.311H224.126C224.925 107.311 225.368 107.756 225.191 108.556L224.038 115.222C223.86 116.022 223.328 116.467 222.53 116.467H217.121L213.928 134.956H221.289C222.087 134.956 222.53 135.4 222.353 136.2L221.2 142.867C221.023 143.667 220.668 144.111 219.87 144.111H204.262C203.552 144.111 203.109 143.756 203.286 142.778L213.751 83.2222C213.928 82.2444 214.46 81.8889 215.17 81.8889Z" fill="url(#paint18_linear_2245_943)"/>
<path d="M235.435 81.8889H242.44C242.973 81.8889 243.416 82.1556 243.239 83.1333L238.893 108.2H239.603C241.199 108.2 241.997 104.822 243.682 97.2667C246.697 83.7556 251.309 81.0889 255.565 81.0889C258.403 81.0889 259.29 81.8889 259.113 82.9556L258.048 89C257.871 89.8 257.516 90.1556 257.073 90.1556C255.122 90.1556 254.235 92.4667 252.55 99.7556C251.131 106.244 249.712 110.867 246.786 112.289C246.431 112.467 245.988 112.556 245.988 112.733C245.899 112.911 246.254 113.089 246.608 113.267C249.092 114.689 249.89 119.4 249.003 126.244C248.027 133.533 248.116 135.844 250.067 135.844C250.51 135.844 250.776 136.2 250.688 137L249.624 143.044C249.446 144.111 247.939 144.911 245.101 144.911C240.578 144.911 237.563 141.889 239.337 128.378C240.312 120.467 239.603 117.089 238.006 117.089H237.297L232.774 142.867C232.597 143.844 232.065 144.111 231.533 144.111H224.438C223.906 144.111 223.374 143.844 223.551 142.867L234.016 83.1333C234.193 82.1556 234.903 81.8889 235.435 81.8889Z" fill="url(#paint19_linear_2245_943)"/>
<path d="M269.524 81.8889H279.102C279.634 81.8889 280.077 82.2444 279.989 83.3111L276.973 142.422C276.885 143.489 276.619 144.111 276.087 144.111H268.105C267.573 144.111 266.953 143.844 267.041 142.778L268.283 130.956H262.784L259.858 142.778C259.592 143.844 258.971 144.111 258.439 144.111H250.635C250.192 144.111 249.926 143.489 250.28 142.422L268.105 83.3111C268.46 82.2444 268.992 81.8889 269.524 81.8889ZM270.854 98.6889L265.09 121.711H269.258L271.653 98.6889C271.653 98.0667 271.919 95.3111 271.741 95.3111C271.564 95.3111 271.032 98.0667 270.854 98.6889Z" fill="url(#paint20_linear_2245_943)"/>
<defs>
<linearGradient id="paint0_linear_2245_943" x1="60.4402" y1="228.694" x2="60.4402" y2="150.778" gradientUnits="userSpaceOnUse">
<stop stop-color="#FF3E00"/>
<stop offset="1" stop-color="#FB339A"/>
</linearGradient>
<linearGradient id="paint1_linear_2245_943" x1="257.465" y1="173.249" x2="257.582" y2="71.155" gradientUnits="userSpaceOnUse">
<stop stop-color="#FFC4E5"/>
<stop offset="1" stop-color="#FB339A"/>
</linearGradient>
<linearGradient id="paint2_linear_2245_943" x1="239.619" y1="98.246" x2="239.686" y2="8.98357" gradientUnits="userSpaceOnUse">
<stop stop-color="#FFC4E5"/>
<stop offset="1" stop-color="#FB339A"/>
</linearGradient>
<linearGradient id="paint3_linear_2245_943" x1="150.134" y1="73.5473" x2="150.134" y2="-14.8074" gradientUnits="userSpaceOnUse">
<stop stop-color="#FF3E00"/>
<stop offset="1" stop-color="#FFC4E5"/>
</linearGradient>
<linearGradient id="paint4_linear_2245_943" x1="60.4397" y1="93.8775" x2="60.4397" y2="15.9611" gradientUnits="userSpaceOnUse">
<stop stop-color="#FF3E00"/>
<stop offset="1" stop-color="#FB339A"/>
</linearGradient>
<linearGradient id="paint5_linear_2245_943" x1="150.137" y1="235.212" x2="150.137" y2="146.858" gradientUnits="userSpaceOnUse">
<stop stop-color="#FFC4E5"/>
<stop offset="1" stop-color="#FF3E00"/>
</linearGradient>
<linearGradient id="paint6_linear_2245_943" x1="150.071" y1="173.08" x2="150.071" y2="76.1982" gradientUnits="userSpaceOnUse">
<stop stop-color="#FF3E00"/>
<stop offset="1" stop-color="#FB339A"/>
</linearGradient>
<linearGradient id="paint7_linear_2245_943" x1="239.676" y1="228.694" x2="239.676" y2="150.772" gradientUnits="userSpaceOnUse">
<stop stop-color="#FF3E00"/>
<stop offset="1" stop-color="#FB339A"/>
</linearGradient>
<linearGradient id="paint8_linear_2245_943" x1="42.5353" y1="173.249" x2="42.6528" y2="71.1544" gradientUnits="userSpaceOnUse">
<stop stop-color="#FFC4E5"/>
<stop offset="1" stop-color="#FB339A"/>
</linearGradient>
<linearGradient id="paint9_linear_2245_943" x1="150" y1="83.0808" x2="150" y2="270.414" gradientUnits="userSpaceOnUse">
<stop stop-color="#FFC4E5"/>
<stop offset="1" stop-color="#FDFF72"/>
</linearGradient>
<linearGradient id="paint10_linear_2245_943" x1="150" y1="83.0808" x2="150" y2="270.414" gradientUnits="userSpaceOnUse">
<stop stop-color="#FFC4E5"/>
<stop offset="1" stop-color="#FDFF72"/>
</linearGradient>
<linearGradient id="paint11_linear_2245_943" x1="150" y1="199.972" x2="150" y2="96.5049" gradientUnits="userSpaceOnUse">
<stop stop-color="#FFC4E5"/>
<stop offset="1" stop-color="#FDFF72"/>
</linearGradient>
<linearGradient id="paint12_linear_2245_943" x1="150" y1="199.972" x2="150" y2="96.5049" gradientUnits="userSpaceOnUse">
<stop stop-color="#FFC4E5"/>
<stop offset="1" stop-color="#FDFF72"/>
</linearGradient>
<linearGradient id="paint13_linear_2245_943" x1="150" y1="199.972" x2="150" y2="96.5049" gradientUnits="userSpaceOnUse">
<stop stop-color="#FFC4E5"/>
<stop offset="1" stop-color="#FDFF72"/>
</linearGradient>
<linearGradient id="paint14_linear_2245_943" x1="150" y1="199.972" x2="150" y2="96.5049" gradientUnits="userSpaceOnUse">
<stop stop-color="#FFC4E5"/>
<stop offset="1" stop-color="#FDFF72"/>
</linearGradient>
<linearGradient id="paint15_linear_2245_943" x1="150" y1="199.972" x2="150" y2="96.5049" gradientUnits="userSpaceOnUse">
<stop stop-color="#FFC4E5"/>
<stop offset="1" stop-color="#FDFF72"/>
</linearGradient>
<linearGradient id="paint16_linear_2245_943" x1="150" y1="199.972" x2="150" y2="96.5049" gradientUnits="userSpaceOnUse">
<stop stop-color="#FFC4E5"/>
<stop offset="1" stop-color="#FDFF72"/>
</linearGradient>
<linearGradient id="paint17_linear_2245_943" x1="150" y1="199.972" x2="150" y2="96.5049" gradientUnits="userSpaceOnUse">
<stop stop-color="#FFC4E5"/>
<stop offset="1" stop-color="#FDFF72"/>
</linearGradient>
<linearGradient id="paint18_linear_2245_943" x1="150" y1="199.972" x2="150" y2="96.5049" gradientUnits="userSpaceOnUse">
<stop stop-color="#FFC4E5"/>
<stop offset="1" stop-color="#FDFF72"/>
</linearGradient>
<linearGradient id="paint19_linear_2245_943" x1="150" y1="199.972" x2="150" y2="96.5049" gradientUnits="userSpaceOnUse">
<stop stop-color="#FFC4E5"/>
<stop offset="1" stop-color="#FDFF72"/>
</linearGradient>
<linearGradient id="paint20_linear_2245_943" x1="150" y1="199.972" x2="150" y2="96.5049" gradientUnits="userSpaceOnUse">
<stop stop-color="#FFC4E5"/>
<stop offset="1" stop-color="#FDFF72"/>
</linearGradient>
</defs>
</svg>
