<svg width="320" height="316" viewBox="0 0 320 316" fill="none" xmlns="http://www.w3.org/2000/svg">
<path fill-rule="evenodd" clip-rule="evenodd" d="M59.7999 154.144C60.1334 154.571 60.8177 154.3 60.7687 153.76L60.17 147.18C58.6904 130.918 77.5164 120.928 90.1478 131.272L99.5043 138.934C102.135 141.088 105.309 142.472 108.675 142.933L121.827 144.731C137.956 146.937 143.51 167.47 130.69 177.498L124.81 182.097C124.384 182.431 124.654 183.115 125.193 183.066L132.628 182.394C148.839 180.929 158.845 199.7 148.596 212.348L140.24 222.662C138.101 225.302 136.734 228.483 136.291 231.854L134.715 243.845C132.587 260.032 112.024 265.635 101.971 252.767L97.9042 247.561C97.5707 247.134 96.8863 247.405 96.9354 247.945L97.534 254.524C99.0137 270.787 80.1876 280.777 67.5562 270.433L58.1997 262.771C55.5694 260.617 52.3952 259.233 49.0288 258.772L35.877 256.974C19.7479 254.768 14.1939 234.235 27.014 224.207L32.8941 219.607C33.3205 219.274 33.0498 218.59 32.5106 218.639L25.0757 219.311C8.8655 220.776 -1.14078 202.005 9.10769 189.357L17.4644 179.043C19.6034 176.403 20.9701 173.221 21.4132 169.851L22.9893 157.86C25.1169 141.673 45.6799 136.07 55.7328 148.938L59.7999 154.144ZM92.3236 195.454C91.1445 192.476 84.0887 192.476 76.564 195.455C69.0393 198.434 63.8952 203.263 65.0743 206.242C66.2533 209.22 73.3091 209.219 80.8338 206.24C88.3585 203.261 93.5026 198.432 92.3236 195.454Z" fill="url(#paint0_linear_2863_1054)"/>
<path fill-rule="evenodd" clip-rule="evenodd" d="M270.752 32.4241C270.776 32.9653 271.491 33.1419 271.764 32.6741L273.695 29.3669C279.223 19.8988 293.41 21.773 296.285 32.3513L298.415 40.1871C299.014 42.3899 300.21 44.3835 301.871 45.9471L308.361 52.0558C316.32 59.5474 311.355 72.9385 300.437 73.4254L296.035 73.6217C295.494 73.6458 295.318 74.3598 295.785 74.633L299.589 76.8573C309.023 82.3736 307.179 96.5361 296.647 99.4579L288.058 101.84C285.86 102.45 283.873 103.657 282.317 105.327L276.783 111.269C269.311 119.29 255.884 114.341 255.403 103.387L255.234 99.5612C255.21 99.02 254.496 98.8434 254.223 99.3112L252.292 102.618C246.763 112.086 232.577 110.212 229.701 99.6339L227.572 91.7982C226.973 89.5954 225.777 87.6017 224.116 86.0381L217.626 79.9294C209.666 72.4379 214.632 59.0467 225.549 58.5598L229.951 58.3635C230.492 58.3394 230.668 57.6255 230.201 57.3522L226.397 55.1281C216.963 49.6118 218.807 35.4493 229.34 32.5276L237.928 30.1452C240.127 29.5353 242.114 28.3284 243.67 26.6581L249.204 20.7163C256.676 12.695 270.102 17.6449 270.584 28.5983L270.752 32.4241ZM272.463 68.291C272.979 66.2031 269.121 63.4538 263.846 62.1502C258.571 60.8465 253.876 61.4823 253.36 63.5702C252.844 65.658 256.702 68.4074 261.977 69.711C267.252 71.0146 271.947 70.3789 272.463 68.291Z" fill="url(#paint1_linear_2863_1054)"/>
<path d="M288.192 174.479L287.82 176.303C286.541 182.562 283.038 188.146 277.959 192.022L276.479 193.151L278.303 193.524C284.562 194.803 290.146 198.306 294.022 203.384L295.151 204.864L295.524 203.04C296.803 196.781 300.306 191.197 305.384 187.322L306.864 186.192L305.04 185.82C298.781 184.541 293.197 181.038 289.322 175.959L288.192 174.479Z" fill="url(#paint2_linear_2863_1054)"/>
<path d="M133.418 2.21472L132.841 2.91599C130.861 5.32258 128.076 6.93044 125.002 7.44204L124.106 7.59111L124.807 8.16813C127.214 10.1483 128.821 12.9332 129.333 16.0075L129.482 16.9033L130.059 16.202C132.039 13.7954 134.824 12.1876 137.898 11.676L138.794 11.5269L138.093 10.9499C135.686 8.9697 134.079 6.18481 133.567 3.11055L133.418 2.21472Z" fill="url(#paint3_linear_2863_1054)"/>
<path d="M54.4952 276.707L52.803 277.916C46.9957 282.067 39.8817 283.973 32.7773 283.282L30.7072 283.081L31.9165 284.773C36.0668 290.58 37.9729 297.695 37.2824 304.799L37.0812 306.869L38.7734 305.66C44.5806 301.509 51.6946 299.603 58.799 300.294L60.8692 300.495L59.6598 298.803C55.5096 292.996 53.6034 285.882 54.294 278.777L54.4952 276.707Z" fill="url(#paint4_linear_2863_1054)"/>
<path d="M296.646 108.2L296.556 109.031C296.25 111.884 294.92 114.529 292.814 116.477L292.2 117.045L293.031 117.134C295.884 117.441 298.529 118.77 300.477 120.877L301.045 121.491L301.134 120.659C301.441 117.806 302.77 115.161 304.877 113.213L305.491 112.645L304.659 112.556C301.807 112.25 299.161 110.92 297.213 108.814L296.646 108.2Z" fill="url(#paint5_linear_2863_1054)"/>
<defs>
<linearGradient id="paint0_linear_2863_1054" x1="46.973" y1="120.328" x2="100.974" y2="256.332" gradientUnits="userSpaceOnUse">
<stop stop-color="#FFC4E5"/>
<stop offset="1" stop-color="#FB339A"/>
</linearGradient>
<linearGradient id="paint1_linear_2863_1054" x1="276.944" y1="9.54248" x2="253.468" y2="104.948" gradientUnits="userSpaceOnUse">
<stop stop-color="#FFC4E5"/>
<stop offset="1" stop-color="#FB339A"/>
</linearGradient>
<linearGradient id="paint2_linear_2863_1054" x1="288.192" y1="174.479" x2="295.151" y2="204.864" gradientUnits="userSpaceOnUse">
<stop stop-color="#FDFF72"/>
<stop offset="1" stop-color="#FFC4E5"/>
</linearGradient>
<linearGradient id="paint3_linear_2863_1054" x1="133.418" y1="2.21472" x2="129.482" y2="16.9033" gradientUnits="userSpaceOnUse">
<stop stop-color="#FDFF72"/>
<stop offset="1" stop-color="#FFC4E5"/>
</linearGradient>
<linearGradient id="paint4_linear_2863_1054" x1="54.4952" y1="276.707" x2="37.0812" y2="306.869" gradientUnits="userSpaceOnUse">
<stop stop-color="#FDFF72"/>
<stop offset="1" stop-color="#FFC4E5"/>
</linearGradient>
<linearGradient id="paint5_linear_2863_1054" x1="296.646" y1="108.2" x2="301.045" y2="121.491" gradientUnits="userSpaceOnUse">
<stop stop-color="#FDFF72"/>
<stop offset="1" stop-color="#FFC4E5"/>
</linearGradient>
</defs>
</svg>
