<svg width="1208" height="692" viewBox="0 0 1208 692" fill="none" xmlns="http://www.w3.org/2000/svg">
<path d="M2 2H174V174H2V2Z" stroke="url(#paint0_linear_2908_1239)" stroke-width="3.01"/>
<path d="M174 174H346V2H174V174Z" stroke="url(#paint1_linear_2908_1239)" stroke-width="3.01"/>
<path d="M346 2H518V174H346V2Z" stroke="url(#paint2_linear_2908_1239)" stroke-width="3.01"/>
<path d="M518 2H690V174H518V2Z" stroke="url(#paint3_linear_2908_1239)" stroke-width="3.01"/>
<path d="M690 174H862V2H690V174Z" stroke="url(#paint4_linear_2908_1239)" stroke-width="3.01"/>
<path d="M862 2H1034V174H862V2Z" stroke="url(#paint5_linear_2908_1239)" stroke-width="3.01"/>
<rect width="172" height="172" transform="matrix(1 0 0 -1 1034 174)" stroke="url(#paint6_linear_2908_1239)" stroke-width="3.01"/>
<rect x="2" y="174" width="172" height="172" stroke="url(#paint7_linear_2908_1239)" stroke-width="3.01"/>
<path d="M174 346H346V174H174V346Z" stroke="url(#paint8_linear_2908_1239)" stroke-width="3.01"/>
<path d="M346 346H518V174H346V346Z" stroke="url(#paint9_linear_2908_1239)" stroke-width="3.01"/>
<path d="M518 174H690V346H518V174Z" stroke="url(#paint10_linear_2908_1239)" stroke-width="3.01"/>
<path d="M690 174H862V346H690V174Z" stroke="url(#paint11_linear_2908_1239)" stroke-width="3.01"/>
<path d="M862 174H1034V346H862V174Z" stroke="url(#paint12_linear_2908_1239)" stroke-width="3.01"/>
<path d="M1034 346H1206V174H1034V346Z" stroke="url(#paint13_linear_2908_1239)" stroke-width="3.01"/>
<path d="M2 346H174V518H2V346Z" stroke="url(#paint14_linear_2908_1239)" stroke-width="3.01"/>
<path d="M174 518H346V346H174V518Z" stroke="url(#paint15_linear_2908_1239)" stroke-width="3.01"/>
<path d="M346 346H518V518H346V346Z" stroke="url(#paint16_linear_2908_1239)" stroke-width="3.01"/>
<path d="M518 346H690V518H518V346Z" stroke="url(#paint17_linear_2908_1239)" stroke-width="3.01"/>
<path d="M690 518H862V346H690V518Z" stroke="url(#paint18_linear_2908_1239)" stroke-width="3.01"/>
<path d="M862 346H1034V518H862V346Z" stroke="url(#paint19_linear_2908_1239)" stroke-width="3.01"/>
<rect width="172" height="172" transform="matrix(1 0 0 -1 1034 518)" stroke="url(#paint20_linear_2908_1239)" stroke-width="3.01"/>
<rect x="2" y="518" width="172" height="172" stroke="url(#paint21_linear_2908_1239)" stroke-width="3.01"/>
<path d="M174 690H346V518H174V690Z" stroke="url(#paint22_linear_2908_1239)" stroke-width="3.01"/>
<path d="M346 690H518V518H346V690Z" stroke="url(#paint23_linear_2908_1239)" stroke-width="3.01"/>
<path d="M518 518H690V690H518V518Z" stroke="url(#paint24_linear_2908_1239)" stroke-width="3.01"/>
<path d="M690 518H862V690H690V518Z" stroke="url(#paint25_linear_2908_1239)" stroke-width="3.01"/>
<path d="M862 518H1034V690H862V518Z" stroke="url(#paint26_linear_2908_1239)" stroke-width="3.01"/>
<path d="M1034 690H1206V518H1034V690Z" stroke="url(#paint27_linear_2908_1239)" stroke-width="3.01"/>
<defs>
<linearGradient id="paint0_linear_2908_1239" x1="88.087" y1="-9.60176" x2="88.087" y2="147.327" gradientUnits="userSpaceOnUse">
<stop stop-color="#FF3E00"/>
<stop offset="1" stop-color="#FB339A"/>
</linearGradient>
<linearGradient id="paint1_linear_2908_1239" x1="260" y1="194.4" x2="260.18" y2="14.6207" gradientUnits="userSpaceOnUse">
<stop stop-color="#FFC4E5"/>
<stop offset="1" stop-color="#FB339A"/>
</linearGradient>
<linearGradient id="paint2_linear_2908_1239" x1="432.087" y1="-9.60176" x2="432.087" y2="147.327" gradientUnits="userSpaceOnUse">
<stop stop-color="#FF3E00"/>
<stop offset="1" stop-color="#FB339A"/>
</linearGradient>
<linearGradient id="paint3_linear_2908_1239" x1="604" y1="-18.4" x2="604.18" y2="161.379" gradientUnits="userSpaceOnUse">
<stop stop-color="#FFC4E5"/>
<stop offset="1" stop-color="#FB339A"/>
</linearGradient>
<linearGradient id="paint4_linear_2908_1239" x1="776.087" y1="185.602" x2="776.087" y2="28.6726" gradientUnits="userSpaceOnUse">
<stop stop-color="#FF3E00"/>
<stop offset="1" stop-color="#FB339A"/>
</linearGradient>
<linearGradient id="paint5_linear_2908_1239" x1="948" y1="-18.4" x2="948.18" y2="161.379" gradientUnits="userSpaceOnUse">
<stop stop-color="#FFC4E5"/>
<stop offset="1" stop-color="#FB339A"/>
</linearGradient>
<linearGradient id="paint6_linear_2908_1239" x1="86.087" y1="-11.6018" x2="86.087" y2="145.327" gradientUnits="userSpaceOnUse">
<stop stop-color="#FF3E00"/>
<stop offset="1" stop-color="#FB339A"/>
</linearGradient>
<linearGradient id="paint7_linear_2908_1239" x1="88" y1="153.6" x2="88.1803" y2="333.379" gradientUnits="userSpaceOnUse">
<stop stop-color="#FFC4E5"/>
<stop offset="1" stop-color="#FB339A"/>
</linearGradient>
<linearGradient id="paint8_linear_2908_1239" x1="260.087" y1="357.602" x2="260.087" y2="200.673" gradientUnits="userSpaceOnUse">
<stop stop-color="#FF3E00"/>
<stop offset="1" stop-color="#FB339A"/>
</linearGradient>
<linearGradient id="paint9_linear_2908_1239" x1="432" y1="366.4" x2="432.18" y2="186.621" gradientUnits="userSpaceOnUse">
<stop stop-color="#FFC4E5"/>
<stop offset="1" stop-color="#FB339A"/>
</linearGradient>
<linearGradient id="paint10_linear_2908_1239" x1="604.087" y1="162.398" x2="604.087" y2="319.327" gradientUnits="userSpaceOnUse">
<stop stop-color="#FF3E00"/>
<stop offset="1" stop-color="#FB339A"/>
</linearGradient>
<linearGradient id="paint11_linear_2908_1239" x1="776" y1="153.6" x2="776.18" y2="333.379" gradientUnits="userSpaceOnUse">
<stop stop-color="#FFC4E5"/>
<stop offset="1" stop-color="#FB339A"/>
</linearGradient>
<linearGradient id="paint12_linear_2908_1239" x1="948.087" y1="162.398" x2="948.087" y2="319.327" gradientUnits="userSpaceOnUse">
<stop stop-color="#FF3E00"/>
<stop offset="1" stop-color="#FB339A"/>
</linearGradient>
<linearGradient id="paint13_linear_2908_1239" x1="1120" y1="366.4" x2="1120.18" y2="186.621" gradientUnits="userSpaceOnUse">
<stop stop-color="#FFC4E5"/>
<stop offset="1" stop-color="#FB339A"/>
</linearGradient>
<linearGradient id="paint14_linear_2908_1239" x1="88.087" y1="334.398" x2="88.087" y2="491.327" gradientUnits="userSpaceOnUse">
<stop stop-color="#FF3E00"/>
<stop offset="1" stop-color="#FB339A"/>
</linearGradient>
<linearGradient id="paint15_linear_2908_1239" x1="260" y1="538.4" x2="260.18" y2="358.621" gradientUnits="userSpaceOnUse">
<stop stop-color="#FFC4E5"/>
<stop offset="1" stop-color="#FB339A"/>
</linearGradient>
<linearGradient id="paint16_linear_2908_1239" x1="432.087" y1="334.398" x2="432.087" y2="491.327" gradientUnits="userSpaceOnUse">
<stop stop-color="#FF3E00"/>
<stop offset="1" stop-color="#FB339A"/>
</linearGradient>
<linearGradient id="paint17_linear_2908_1239" x1="604" y1="325.6" x2="604.18" y2="505.379" gradientUnits="userSpaceOnUse">
<stop stop-color="#FFC4E5"/>
<stop offset="1" stop-color="#FB339A"/>
</linearGradient>
<linearGradient id="paint18_linear_2908_1239" x1="776.087" y1="529.602" x2="776.087" y2="372.673" gradientUnits="userSpaceOnUse">
<stop stop-color="#FF3E00"/>
<stop offset="1" stop-color="#FB339A"/>
</linearGradient>
<linearGradient id="paint19_linear_2908_1239" x1="948" y1="325.6" x2="948.18" y2="505.379" gradientUnits="userSpaceOnUse">
<stop stop-color="#FFC4E5"/>
<stop offset="1" stop-color="#FB339A"/>
</linearGradient>
<linearGradient id="paint20_linear_2908_1239" x1="86.087" y1="-11.6018" x2="86.087" y2="145.327" gradientUnits="userSpaceOnUse">
<stop stop-color="#FF3E00"/>
<stop offset="1" stop-color="#FB339A"/>
</linearGradient>
<linearGradient id="paint21_linear_2908_1239" x1="88" y1="497.6" x2="88.1803" y2="677.379" gradientUnits="userSpaceOnUse">
<stop stop-color="#FFC4E5"/>
<stop offset="1" stop-color="#FB339A"/>
</linearGradient>
<linearGradient id="paint22_linear_2908_1239" x1="260.087" y1="701.602" x2="260.087" y2="544.673" gradientUnits="userSpaceOnUse">
<stop stop-color="#FF3E00"/>
<stop offset="1" stop-color="#FB339A"/>
</linearGradient>
<linearGradient id="paint23_linear_2908_1239" x1="432" y1="710.4" x2="432.18" y2="530.621" gradientUnits="userSpaceOnUse">
<stop stop-color="#FFC4E5"/>
<stop offset="1" stop-color="#FB339A"/>
</linearGradient>
<linearGradient id="paint24_linear_2908_1239" x1="604.087" y1="506.398" x2="604.087" y2="663.327" gradientUnits="userSpaceOnUse">
<stop stop-color="#FF3E00"/>
<stop offset="1" stop-color="#FB339A"/>
</linearGradient>
<linearGradient id="paint25_linear_2908_1239" x1="776" y1="497.6" x2="776.18" y2="677.379" gradientUnits="userSpaceOnUse">
<stop stop-color="#FFC4E5"/>
<stop offset="1" stop-color="#FB339A"/>
</linearGradient>
<linearGradient id="paint26_linear_2908_1239" x1="948.087" y1="506.398" x2="948.087" y2="663.327" gradientUnits="userSpaceOnUse">
<stop stop-color="#FF3E00"/>
<stop offset="1" stop-color="#FB339A"/>
</linearGradient>
<linearGradient id="paint27_linear_2908_1239" x1="1120" y1="710.4" x2="1120.18" y2="530.621" gradientUnits="userSpaceOnUse">
<stop stop-color="#FFC4E5"/>
<stop offset="1" stop-color="#FB339A"/>
</linearGradient>
</defs>
</svg>
