<svg width="588" height="421" viewBox="0 0 588 421" fill="none" xmlns="http://www.w3.org/2000/svg">
<path d="M1 1H84.75V84.75H1V1Z" stroke="url(#paint0_linear_2897_1059)" stroke-width="1.46562"/>
<path d="M84.75 84.75H168.5V1H84.75V84.75Z" stroke="url(#paint1_linear_2897_1059)" stroke-width="1.46562"/>
<path d="M168.5 1H252.25V84.75H168.5V1Z" stroke="url(#paint2_linear_2897_1059)" stroke-width="1.46562"/>
<path d="M252.25 1H336V84.75H252.25V1Z" stroke="url(#paint3_linear_2897_1059)" stroke-width="1.46562"/>
<path d="M336 84.75H419.75V1H336V84.75Z" stroke="url(#paint4_linear_2897_1059)" stroke-width="1.46562"/>
<path d="M419.75 1H503.5V84.75H419.75V1Z" stroke="url(#paint5_linear_2897_1059)" stroke-width="1.46562"/>
<rect width="83.75" height="83.75" transform="matrix(1 0 0 -1 503.5 84.75)" stroke="url(#paint6_linear_2897_1059)" stroke-width="1.46562"/>
<rect x="1" y="84.75" width="83.75" height="83.75" stroke="url(#paint7_linear_2897_1059)" stroke-width="1.46562"/>
<path d="M84.75 168.5H168.5V84.75H84.75V168.5Z" stroke="url(#paint8_linear_2897_1059)" stroke-width="1.46562"/>
<path d="M168.5 168.5H252.25V84.75H168.5V168.5Z" stroke="url(#paint9_linear_2897_1059)" stroke-width="1.46562"/>
<path d="M252.25 84.75H336V168.5H252.25V84.75Z" stroke="url(#paint10_linear_2897_1059)" stroke-width="1.46562"/>
<path d="M336 84.75H419.75V168.5H336V84.75Z" stroke="url(#paint11_linear_2897_1059)" stroke-width="1.46562"/>
<path d="M419.75 84.75H503.5V168.5H419.75V84.75Z" stroke="url(#paint12_linear_2897_1059)" stroke-width="1.46562"/>
<path d="M503.5 168.5H587.25V84.75H503.5V168.5Z" stroke="url(#paint13_linear_2897_1059)" stroke-width="1.46562"/>
<path d="M1 168.5H84.75V252.25H1V168.5Z" stroke="url(#paint14_linear_2897_1059)" stroke-width="1.46562"/>
<path d="M84.75 252.25H168.5V168.5H84.75V252.25Z" stroke="url(#paint15_linear_2897_1059)" stroke-width="1.46562"/>
<path d="M168.5 168.5H252.25V252.25H168.5V168.5Z" stroke="url(#paint16_linear_2897_1059)" stroke-width="1.46562"/>
<path d="M252.25 168.5H336V252.25H252.25V168.5Z" stroke="url(#paint17_linear_2897_1059)" stroke-width="1.46562"/>
<path d="M336 252.25H419.75V168.5H336V252.25Z" stroke="url(#paint18_linear_2897_1059)" stroke-width="1.46562"/>
<path d="M419.75 168.5H503.5V252.25H419.75V168.5Z" stroke="url(#paint19_linear_2897_1059)" stroke-width="1.46562"/>
<rect width="83.75" height="83.75" transform="matrix(1 0 0 -1 503.5 252.25)" stroke="url(#paint20_linear_2897_1059)" stroke-width="1.46562"/>
<rect x="1" y="252.25" width="83.75" height="83.75" stroke="url(#paint21_linear_2897_1059)" stroke-width="1.46562"/>
<path d="M84.75 336H168.5V252.25H84.75V336Z" stroke="url(#paint22_linear_2897_1059)" stroke-width="1.46562"/>
<path d="M168.5 336H252.25V252.25H168.5V336Z" stroke="url(#paint23_linear_2897_1059)" stroke-width="1.46562"/>
<path d="M252.25 252.25H336V336H252.25V252.25Z" stroke="url(#paint24_linear_2897_1059)" stroke-width="1.46562"/>
<path d="M336 252.25H419.75V336H336V252.25Z" stroke="url(#paint25_linear_2897_1059)" stroke-width="1.46562"/>
<path d="M419.75 252.25H503.5V336H419.75V252.25Z" stroke="url(#paint26_linear_2897_1059)" stroke-width="1.46562"/>
<path d="M503.5 336H587.25V252.25H503.5V336Z" stroke="url(#paint27_linear_2897_1059)" stroke-width="1.46562"/>
<g clip-path="url(#clip0_2897_1059)">
<path d="M0.75 420H84.5V336.25H0.75V420Z" stroke="url(#paint28_linear_2897_1059)" stroke-width="1.46562"/>
<path d="M84.5 420H168.25V336.25H84.5V420Z" stroke="url(#paint29_linear_2897_1059)" stroke-width="1.46562"/>
</g>
<path d="M1 419.75H84.75V336H1V419.75Z" stroke="url(#paint30_linear_2897_1059)" stroke-width="1.46562"/>
<g clip-path="url(#clip1_2897_1059)">
<path d="M84.75 420H168.5V336.25H84.75V420Z" stroke="url(#paint31_linear_2897_1059)" stroke-width="1.46562"/>
<path d="M168.5 420H252.25V336.25H168.5V420Z" stroke="url(#paint32_linear_2897_1059)" stroke-width="1.46562"/>
</g>
<path d="M84.75 419.75H168.5V336H84.75V419.75Z" stroke="url(#paint33_linear_2897_1059)" stroke-width="1.46562"/>
<g clip-path="url(#clip2_2897_1059)">
<path d="M168.75 420H252.5V336.25H168.75V420Z" stroke="url(#paint34_linear_2897_1059)" stroke-width="1.46562"/>
<path d="M252.5 420H336.25V336.25H252.5V420Z" stroke="url(#paint35_linear_2897_1059)" stroke-width="1.46562"/>
</g>
<path d="M168.5 336H252.25V419.75H168.5V336Z" stroke="url(#paint36_linear_2897_1059)" stroke-width="1.46562"/>
<path d="M252.25 419.75H336V336H252.25V419.75Z" stroke="url(#paint37_linear_2897_1059)" stroke-width="1.46562"/>
<path d="M336 419.75H419.75V336H336V419.75Z" stroke="url(#paint38_linear_2897_1059)" stroke-width="1.46562"/>
<path d="M419.75 336H503.5V419.75H419.75V336Z" stroke="url(#paint39_linear_2897_1059)" stroke-width="1.46562"/>
<defs>
<linearGradient id="paint0_linear_2897_1059" x1="42.9174" y1="-4.64911" x2="42.9174" y2="71.7626" gradientUnits="userSpaceOnUse">
<stop stop-color="#FF3E00"/>
<stop offset="1" stop-color="#FB339A"/>
</linearGradient>
<linearGradient id="paint1_linear_2897_1059" x1="126.625" y1="94.6831" x2="126.713" y2="7.14523" gradientUnits="userSpaceOnUse">
<stop stop-color="#FFC4E5"/>
<stop offset="1" stop-color="#FB339A"/>
</linearGradient>
<linearGradient id="paint2_linear_2897_1059" x1="210.417" y1="-4.64911" x2="210.417" y2="71.7626" gradientUnits="userSpaceOnUse">
<stop stop-color="#FF3E00"/>
<stop offset="1" stop-color="#FB339A"/>
</linearGradient>
<linearGradient id="paint3_linear_2897_1059" x1="294.125" y1="-8.93314" x2="294.213" y2="78.6048" gradientUnits="userSpaceOnUse">
<stop stop-color="#FFC4E5"/>
<stop offset="1" stop-color="#FB339A"/>
</linearGradient>
<linearGradient id="paint4_linear_2897_1059" x1="377.917" y1="90.3991" x2="377.917" y2="13.9874" gradientUnits="userSpaceOnUse">
<stop stop-color="#FF3E00"/>
<stop offset="1" stop-color="#FB339A"/>
</linearGradient>
<linearGradient id="paint5_linear_2897_1059" x1="461.625" y1="-8.93314" x2="461.713" y2="78.6048" gradientUnits="userSpaceOnUse">
<stop stop-color="#FFC4E5"/>
<stop offset="1" stop-color="#FB339A"/>
</linearGradient>
<linearGradient id="paint6_linear_2897_1059" x1="41.9174" y1="-5.64911" x2="41.9174" y2="70.7626" gradientUnits="userSpaceOnUse">
<stop stop-color="#FF3E00"/>
<stop offset="1" stop-color="#FB339A"/>
</linearGradient>
<linearGradient id="paint7_linear_2897_1059" x1="42.875" y1="74.8169" x2="42.9628" y2="162.355" gradientUnits="userSpaceOnUse">
<stop stop-color="#FFC4E5"/>
<stop offset="1" stop-color="#FB339A"/>
</linearGradient>
<linearGradient id="paint8_linear_2897_1059" x1="126.667" y1="174.149" x2="126.667" y2="97.7374" gradientUnits="userSpaceOnUse">
<stop stop-color="#FF3E00"/>
<stop offset="1" stop-color="#FB339A"/>
</linearGradient>
<linearGradient id="paint9_linear_2897_1059" x1="210.375" y1="178.433" x2="210.463" y2="90.8952" gradientUnits="userSpaceOnUse">
<stop stop-color="#FFC4E5"/>
<stop offset="1" stop-color="#FB339A"/>
</linearGradient>
<linearGradient id="paint10_linear_2897_1059" x1="294.167" y1="79.1009" x2="294.167" y2="155.513" gradientUnits="userSpaceOnUse">
<stop stop-color="#FF3E00"/>
<stop offset="1" stop-color="#FB339A"/>
</linearGradient>
<linearGradient id="paint11_linear_2897_1059" x1="377.917" y1="79.1009" x2="377.917" y2="155.513" gradientUnits="userSpaceOnUse">
<stop stop-color="#FF3E00"/>
<stop offset="1" stop-color="#FB339A"/>
</linearGradient>
<linearGradient id="paint12_linear_2897_1059" x1="461.667" y1="79.1009" x2="461.667" y2="155.513" gradientUnits="userSpaceOnUse">
<stop stop-color="#FF3E00"/>
<stop offset="1" stop-color="#FB339A"/>
</linearGradient>
<linearGradient id="paint13_linear_2897_1059" x1="545.375" y1="178.433" x2="545.463" y2="90.8952" gradientUnits="userSpaceOnUse">
<stop stop-color="#FFC4E5"/>
<stop offset="1" stop-color="#FB339A"/>
</linearGradient>
<linearGradient id="paint14_linear_2897_1059" x1="42.9174" y1="162.851" x2="42.9174" y2="239.263" gradientUnits="userSpaceOnUse">
<stop stop-color="#FF3E00"/>
<stop offset="1" stop-color="#FB339A"/>
</linearGradient>
<linearGradient id="paint15_linear_2897_1059" x1="126.625" y1="262.183" x2="126.713" y2="174.645" gradientUnits="userSpaceOnUse">
<stop stop-color="#FFC4E5"/>
<stop offset="1" stop-color="#FB339A"/>
</linearGradient>
<linearGradient id="paint16_linear_2897_1059" x1="210.417" y1="162.851" x2="210.417" y2="239.263" gradientUnits="userSpaceOnUse">
<stop stop-color="#FF3E00"/>
<stop offset="1" stop-color="#FB339A"/>
</linearGradient>
<linearGradient id="paint17_linear_2897_1059" x1="294.125" y1="158.567" x2="294.213" y2="246.105" gradientUnits="userSpaceOnUse">
<stop stop-color="#FFC4E5"/>
<stop offset="1" stop-color="#FB339A"/>
</linearGradient>
<linearGradient id="paint18_linear_2897_1059" x1="377.917" y1="257.899" x2="377.917" y2="181.487" gradientUnits="userSpaceOnUse">
<stop stop-color="#FF3E00"/>
<stop offset="1" stop-color="#FB339A"/>
</linearGradient>
<linearGradient id="paint19_linear_2897_1059" x1="461.625" y1="158.567" x2="461.713" y2="246.105" gradientUnits="userSpaceOnUse">
<stop stop-color="#FFC4E5"/>
<stop offset="1" stop-color="#FB339A"/>
</linearGradient>
<linearGradient id="paint20_linear_2897_1059" x1="41.9174" y1="-5.64911" x2="41.9174" y2="70.7626" gradientUnits="userSpaceOnUse">
<stop stop-color="#FF3E00"/>
<stop offset="1" stop-color="#FB339A"/>
</linearGradient>
<linearGradient id="paint21_linear_2897_1059" x1="42.875" y1="242.317" x2="42.9628" y2="329.855" gradientUnits="userSpaceOnUse">
<stop stop-color="#FFC4E5"/>
<stop offset="1" stop-color="#FB339A"/>
</linearGradient>
<linearGradient id="paint22_linear_2897_1059" x1="126.667" y1="341.649" x2="126.667" y2="265.237" gradientUnits="userSpaceOnUse">
<stop stop-color="#FF3E00"/>
<stop offset="1" stop-color="#FB339A"/>
</linearGradient>
<linearGradient id="paint23_linear_2897_1059" x1="210.375" y1="345.933" x2="210.463" y2="258.395" gradientUnits="userSpaceOnUse">
<stop stop-color="#FFC4E5"/>
<stop offset="1" stop-color="#FB339A"/>
</linearGradient>
<linearGradient id="paint24_linear_2897_1059" x1="294.167" y1="246.601" x2="294.167" y2="323.013" gradientUnits="userSpaceOnUse">
<stop stop-color="#FF3E00"/>
<stop offset="1" stop-color="#FB339A"/>
</linearGradient>
<linearGradient id="paint25_linear_2897_1059" x1="377.875" y1="242.317" x2="377.963" y2="329.855" gradientUnits="userSpaceOnUse">
<stop stop-color="#FFC4E5"/>
<stop offset="1" stop-color="#FB339A"/>
</linearGradient>
<linearGradient id="paint26_linear_2897_1059" x1="461.667" y1="246.601" x2="461.667" y2="323.013" gradientUnits="userSpaceOnUse">
<stop stop-color="#FF3E00"/>
<stop offset="1" stop-color="#FB339A"/>
</linearGradient>
<linearGradient id="paint27_linear_2897_1059" x1="545.375" y1="345.933" x2="545.463" y2="258.395" gradientUnits="userSpaceOnUse">
<stop stop-color="#FFC4E5"/>
<stop offset="1" stop-color="#FB339A"/>
</linearGradient>
<linearGradient id="paint28_linear_2897_1059" x1="42.6674" y1="425.649" x2="42.6674" y2="349.237" gradientUnits="userSpaceOnUse">
<stop stop-color="#FF3E00"/>
<stop offset="1" stop-color="#FB339A"/>
</linearGradient>
<linearGradient id="paint29_linear_2897_1059" x1="126.375" y1="429.933" x2="126.463" y2="342.395" gradientUnits="userSpaceOnUse">
<stop stop-color="#FFC4E5"/>
<stop offset="1" stop-color="#FB339A"/>
</linearGradient>
<linearGradient id="paint30_linear_2897_1059" x1="42.9174" y1="425.399" x2="42.9174" y2="348.987" gradientUnits="userSpaceOnUse">
<stop stop-color="#FF3E00"/>
<stop offset="1" stop-color="#FB339A"/>
</linearGradient>
<linearGradient id="paint31_linear_2897_1059" x1="126.667" y1="425.649" x2="126.667" y2="349.237" gradientUnits="userSpaceOnUse">
<stop stop-color="#FF3E00"/>
<stop offset="1" stop-color="#FB339A"/>
</linearGradient>
<linearGradient id="paint32_linear_2897_1059" x1="210.375" y1="429.933" x2="210.463" y2="342.395" gradientUnits="userSpaceOnUse">
<stop stop-color="#FFC4E5"/>
<stop offset="1" stop-color="#FB339A"/>
</linearGradient>
<linearGradient id="paint33_linear_2897_1059" x1="126.625" y1="429.683" x2="126.713" y2="342.145" gradientUnits="userSpaceOnUse">
<stop stop-color="#FFC4E5"/>
<stop offset="1" stop-color="#FB339A"/>
</linearGradient>
<linearGradient id="paint34_linear_2897_1059" x1="210.667" y1="425.649" x2="210.667" y2="349.237" gradientUnits="userSpaceOnUse">
<stop stop-color="#FF3E00"/>
<stop offset="1" stop-color="#FB339A"/>
</linearGradient>
<linearGradient id="paint35_linear_2897_1059" x1="294.375" y1="429.933" x2="294.463" y2="342.395" gradientUnits="userSpaceOnUse">
<stop stop-color="#FFC4E5"/>
<stop offset="1" stop-color="#FB339A"/>
</linearGradient>
<linearGradient id="paint36_linear_2897_1059" x1="210.417" y1="330.351" x2="210.417" y2="406.763" gradientUnits="userSpaceOnUse">
<stop stop-color="#FF3E00"/>
<stop offset="1" stop-color="#FB339A"/>
</linearGradient>
<linearGradient id="paint37_linear_2897_1059" x1="294.167" y1="425.399" x2="294.167" y2="348.987" gradientUnits="userSpaceOnUse">
<stop stop-color="#FF3E00"/>
<stop offset="1" stop-color="#FB339A"/>
</linearGradient>
<linearGradient id="paint38_linear_2897_1059" x1="377.875" y1="429.683" x2="377.963" y2="342.145" gradientUnits="userSpaceOnUse">
<stop stop-color="#FFC4E5"/>
<stop offset="1" stop-color="#FB339A"/>
</linearGradient>
<linearGradient id="paint39_linear_2897_1059" x1="461.667" y1="330.351" x2="461.667" y2="406.763" gradientUnits="userSpaceOnUse">
<stop stop-color="#FF3E00"/>
<stop offset="1" stop-color="#FB339A"/>
</linearGradient>
<clipPath id="clip0_2897_1059">
<path d="M1 419.75H84.75V336H1V419.75Z" fill="white"/>
</clipPath>
<clipPath id="clip1_2897_1059">
<path d="M84.75 419.75H168.5V336H84.75V419.75Z" fill="white"/>
</clipPath>
<clipPath id="clip2_2897_1059">
<path d="M168.5 336H252.25V419.75H168.5V336Z" fill="white"/>
</clipPath>
</defs>
</svg>
