<svg width="708" height="116" viewBox="0 0 708 116" fill="none" xmlns="http://www.w3.org/2000/svg">
<path d="M13.8976 34.7422L13.8281 34.8104L13.7694 34.8882C4.91107 46.6228 0.94475 56.8652 1.80063 65.7881C2.66365 74.7856 8.38583 82.0699 18.0124 87.9448C27.6205 93.8085 41.2709 98.3723 58.3781 101.935C75.5038 105.503 96.1853 108.085 119.916 109.937C188.29 115.273 282.289 114.565 390.098 113.754C431.882 113.439 475.742 113.109 520.988 113.109C579.205 113.109 628.001 112.861 660.775 105.721C677.157 102.152 689.765 96.8169 697.53 88.7323C705.383 80.5555 708.117 69.7462 705.134 55.7168C701.097 36.7352 686.516 24.2188 665.516 16.0872C644.53 7.96101 616.899 4.1109 586.252 2.56326C555.586 1.01461 521.786 1.76769 488.418 2.90521C480.901 3.16147 473.407 3.43719 465.975 3.71063C440.395 4.65174 415.552 5.56572 393.055 5.56572H162.218C155.3 5.56572 148.21 5.44361 141.034 5.32C121.64 4.98595 101.614 4.64102 82.6423 6.66586C56.6092 9.44441 32.2782 16.7013 13.8976 34.7422Z" stroke="url(#paint0_linear_1_1975)" stroke-width="2.62621"/>
<defs>
<linearGradient id="paint0_linear_1_1975" x1="354" y1="43.4999" x2="354" y2="134.82" gradientUnits="userSpaceOnUse">
<stop stop-color="#FFC4E5"/>
<stop offset="1" stop-color="#FDFF72"/>
</linearGradient>
</defs>
</svg>
