<svg width="120" height="31" viewBox="0 0 120 31" fill="none" xmlns="http://www.w3.org/2000/svg">
<path fill-rule="evenodd" clip-rule="evenodd" d="M4.42684 15.2956L2.91049 14.8483C-0.530368 13.8334 -1.05809 9.1748 2.06835 7.41419L4.61766 5.97858C5.27021 5.61111 5.80842 5.06998 6.1727 4.41514L7.4685 2.08574C9.21783 -1.05896 13.8865 -0.538945 14.9026 2.91378L15.2958 4.24964C15.3348 4.3822 15.5223 4.3822 15.5613 4.24964L15.9545 2.91378C16.9707 -0.538945 21.6393 -1.05896 23.3886 2.08574L24.6844 4.41514C25.0487 5.06998 25.5869 5.61111 26.2395 5.97858L28.7888 7.41419C31.9152 9.1748 31.3875 13.8334 27.9466 14.8483L26.4303 15.2956C26.2979 15.3347 26.2979 15.5224 26.4303 15.5615L27.9466 16.0088C31.3875 17.0238 31.9152 21.6823 28.7888 23.4429L26.2395 24.8786C25.5869 25.246 25.0487 25.7871 24.6844 26.442L23.3886 28.7714C21.6393 31.9161 16.9707 31.3961 15.9545 27.9434L15.5613 26.6075C15.5223 26.4749 15.3348 26.4749 15.2958 26.6075L14.9026 27.9434C13.8865 31.3961 9.21783 31.9161 7.4685 28.7714L6.1727 26.442C5.80842 25.7871 5.27021 25.246 4.61766 24.8786L2.06835 23.4429C-1.05809 21.6823 -0.530368 17.0238 2.91049 16.0088L4.42684 15.5615C4.55925 15.5224 4.55925 15.3347 4.42684 15.2956ZM18.6278 15.4152C18.6278 14.7092 17.1818 14.1368 15.3981 14.1368C13.6143 14.1368 12.1683 14.7092 12.1683 15.4152C12.1683 16.1212 13.6143 16.6935 15.3981 16.6935C17.1818 16.6935 18.6278 16.1212 18.6278 15.4152Z" fill="url(#paint0_linear_1_3460)"/>
<path d="M62.2242 19.078V19.137C62.88 18.623 63.7071 18.3631 64.7174 18.3631C65.7276 18.3631 66.5193 18.6053 67.0983 19.0839C67.6713 19.5624 67.9608 20.2241 67.9608 21.063V21.3171C67.9608 22.1737 67.6359 22.8472 66.986 23.3494C66.3362 23.8516 65.4618 24.0997 64.357 24.0997C61.8934 24.0997 60.5464 22.8118 60.5464 20.4427V19.8046C60.5464 17.4178 61.6571 16.2008 64.0675 15.9881L65.3732 15.8818C65.6331 15.8581 65.7631 15.7754 65.7572 15.6277V15.5332H67.6005V15.87C67.6005 16.7739 67.0687 17.2701 66.0112 17.3588L64.1148 17.5124C62.8209 17.6246 62.2242 18.1268 62.2242 19.078ZM66.1471 21.3407V21.1221C66.1471 20.3009 65.4736 19.8283 64.292 19.8283C63.4354 19.8283 62.7796 20.0705 62.3129 20.5549V20.9153C62.3129 22.0378 62.9686 22.5991 64.2802 22.5991C65.4381 22.5991 66.1471 22.1264 66.1471 21.3407Z" fill="#FFD9FF"/>
<path d="M56.0651 22.2566L58.1684 17.8906H60.0353V18.1447L56.8273 24.5548C56.5673 25.0628 56.2483 25.435 55.8702 25.6655C55.4921 25.8959 54.984 26.0081 54.3459 26.0081H52.7626V24.4721H54.2632C54.665 24.4721 54.9426 24.348 55.0962 24.0999L52.0596 18.1447V17.8906H53.9206L56.0651 22.2566Z" fill="#FFD9FF"/>
<path d="M45.0909 17.8906H51.3119V23.9522H49.5572V19.4385H46.7096L46.6624 21.0218C46.5974 22.9774 45.8352 23.9522 44.376 23.9522H43.6611V22.3925H43.9683C44.6773 22.3925 44.9904 21.9612 45.0081 20.9155L45.0909 17.8906Z" fill="#FFD9FF"/>
<path d="M43.5869 18.1447L41.1883 20.8564L43.7169 23.6981V23.9522H41.7554L39.6758 21.654H38.2697V23.9522H36.521V17.8906H38.2697V20.1415H39.6049L41.59 17.8906H43.5869V18.1447Z" fill="#FFD9FF"/>
<path d="M119.226 4.28613V4.38657C119.226 5.6745 118.346 6.31846 116.58 6.31846C114.813 6.31846 113.927 5.6745 113.927 4.38657V4.28613H115.451V4.38657C115.451 4.75877 115.823 4.94191 116.574 4.94191C117.265 4.94191 117.613 4.75877 117.613 4.38657V4.28613H119.226ZM114.724 13.0476H113.141V6.98606H114.819V10.9207L118.411 6.98606H120V13.0476H118.316V9.11291L114.724 13.0476Z" fill="#FFD9FF"/>
<path d="M104.299 8.49876H106.769C107.584 8.49876 108.222 8.69963 108.689 9.09546C109.15 9.4972 109.38 10.0407 109.38 10.726V10.856C109.38 11.5236 109.15 12.0553 108.689 12.4512C108.222 12.847 107.584 13.0479 106.769 13.0479H102.557V6.98633H104.299V8.49876ZM110.012 13.0479V6.98633H111.755V13.0479H110.012ZM107.578 10.856V10.7142C107.578 10.2239 107.271 9.97574 106.651 9.97574H104.299V11.5709H106.651C107.271 11.5709 107.578 11.3346 107.578 10.856Z" fill="#FFD9FF"/>
<path d="M96.0134 13.0479H94.2646V6.98633H96.0134V9.23725H99.4282V6.98633H101.183V13.0479H99.4282V10.7733H96.0134V13.0479Z" fill="#FFD9FF"/>
<path d="M92.0871 4.28613V4.38657C92.0871 5.6745 91.2068 6.31846 89.4404 6.31846C87.6739 6.31846 86.7877 5.6745 86.7877 4.38657V4.28613H88.312V4.38657C88.312 4.75877 88.6842 4.94191 89.4345 4.94191C90.1257 4.94191 90.4743 4.75877 90.4743 4.38657V4.28613H92.0871ZM87.5853 13.0476H86.002V6.98606H87.6798V10.9207L91.2718 6.98606H92.8611V13.0476H91.1773V9.11291L87.5853 13.0476Z" fill="#FFD9FF"/>
<path d="M81.278 11.3523L83.3813 6.98633H85.2482V7.24037L82.0402 13.6505C81.7802 14.1586 81.4612 14.5308 81.0831 14.7612C80.705 14.9916 80.1969 15.1038 79.5588 15.1038H77.9755V13.5678H79.4761C79.8779 13.5678 80.1555 13.4437 80.3091 13.1956L77.2725 7.24037V6.98633H79.1335L81.278 11.3523Z" fill="#FFD9FF"/>
<path d="M70.3037 6.98633H76.5248V13.0479H74.7701V8.53421H71.9225L71.8753 10.1175C71.8103 12.0731 71.0481 13.0479 69.5889 13.0479H68.874V11.4882H69.1812C69.8902 11.4882 70.2033 11.0569 70.221 10.0112L70.3037 6.98633Z" fill="#FFD9FF"/>
<path d="M68.7999 9.9041V10.5303H63.4059C63.5182 11.2866 64.168 11.706 65.2315 11.706C66.2004 11.706 66.8562 11.4283 66.9507 10.9793H68.788C68.6994 11.6883 68.3449 12.2318 67.7305 12.6158C67.1102 12.9999 66.2772 13.1948 65.2315 13.1948C64.109 13.1948 63.2228 12.9231 62.5788 12.3736C61.9289 11.8301 61.604 11.0857 61.604 10.1404V9.91592C61.604 8.96474 61.9289 8.20853 62.5788 7.65909C63.2287 7.10966 64.1149 6.83789 65.2315 6.83789C66.3599 6.83789 67.2402 7.10375 67.8664 7.64137C68.4867 8.17899 68.7999 8.9352 68.7999 9.9041ZM65.2197 8.30306C64.2448 8.30306 63.6541 8.62799 63.4532 9.27196H66.9507C66.7498 8.62799 66.1708 8.30306 65.2197 8.30306Z" fill="#FFD9FF"/>
<path d="M60.4546 6.98633V11.5118H61.6066V14.5957H59.852V13.0479H53.7432V6.98633H55.4919V11.5118H58.6999V6.98633H60.4546Z" fill="#FFD9FF"/>
<path d="M49.1022 13.1948C47.9561 13.1948 47.0522 12.9171 46.3905 12.3677C45.7288 11.8183 45.3979 11.068 45.3979 10.1168V9.96318C45.3979 8.99428 45.7288 8.23216 46.3846 7.67091C47.0404 7.11556 47.9502 6.83789 49.1022 6.83789C50.2484 6.83789 51.1464 7.11556 51.7962 7.67091C52.4402 8.23216 52.7651 8.99428 52.7651 9.96318V10.1168C52.7651 11.068 52.4402 11.8183 51.7903 12.3677C51.1345 12.9171 50.2424 13.1948 49.1022 13.1948ZM49.0845 11.5938C50.2661 11.5938 50.9514 11.0562 50.9514 10.105V9.975C50.9514 8.98838 50.2838 8.43894 49.0845 8.43894C47.8734 8.43894 47.2117 8.97656 47.2117 9.975V10.105C47.2117 11.0562 47.8852 11.5938 49.0845 11.5938Z" fill="#FFD9FF"/>
<path d="M38.3938 13.0476H36.5801V5.11328H44.3608V13.0476H42.5412V6.74387H38.3938V13.0476Z" fill="#FFD9FF"/>
<defs>
<linearGradient id="paint0_linear_1_3460" x1="15.4286" y1="11.361" x2="15.4286" y2="36.9781" gradientUnits="userSpaceOnUse">
<stop stop-color="#FFC4E5"/>
<stop offset="1" stop-color="#FDFF72"/>
</linearGradient>
</defs>
</svg>
