<svg width="220" height="171" viewBox="0 0 220 171" fill="none" xmlns="http://www.w3.org/2000/svg">
<path fill-rule="evenodd" clip-rule="evenodd" d="M67.7238 54.318C69.7351 53.7247 69.7351 50.876 67.7238 50.2827C56.1034 46.8545 54.3212 31.1197 64.8798 25.173L73.4893 20.3241C75.6931 19.0829 77.5108 17.2553 78.741 15.0434L83.1172 7.17565C89.025 -3.44587 104.792 -1.68948 108.224 9.97245C108.745 11.7441 111.255 11.7441 111.776 9.97245C115.208 -1.68948 130.975 -3.44587 136.882 7.17565L141.259 15.0434C142.489 17.2553 144.307 19.0829 146.51 20.3241L155.12 25.173C165.678 31.1197 163.896 46.8545 152.276 50.2827C150.265 50.876 150.265 53.7247 152.276 54.318C163.896 57.7462 165.678 73.481 155.12 79.4276L146.51 84.2766C144.307 85.5177 142.489 87.3454 141.259 89.5573L136.882 97.4251C130.975 108.047 115.208 106.29 111.776 94.6283C111.255 92.8566 108.745 92.8566 108.224 94.6283C104.792 106.29 89.025 108.047 83.1172 97.4251L78.741 89.5573C77.5108 87.3454 75.6931 85.5177 73.4893 84.2766L64.8798 79.4276C54.3212 73.481 56.1034 57.7462 67.7238 54.318ZM120.799 52.1944C120.799 49.8099 115.916 47.8768 109.892 47.8768C103.867 47.8768 98.984 49.8099 98.984 52.1944C98.984 54.5789 103.867 56.512 109.892 56.512C115.916 56.512 120.799 54.5789 120.799 52.1944Z" fill="url(#paint0_linear_1_4634)"/>
<path d="M136.805 152.24V152.396C138.534 151.039 140.716 150.352 143.38 150.352C146.044 150.352 148.132 150.992 149.659 152.255C151.17 153.519 151.934 155.266 151.934 157.481V158.152C151.934 160.414 151.077 162.192 149.363 163.518C147.649 164.844 145.343 165.5 142.429 165.5C135.932 165.5 132.38 162.099 132.38 155.843V154.159C132.38 147.856 135.309 144.643 141.666 144.081L145.109 143.8C145.795 143.738 146.138 143.519 146.122 143.129V142.88H150.983V143.769C150.983 146.156 149.581 147.466 146.792 147.7L141.791 148.106C138.378 148.402 136.805 149.728 136.805 152.24ZM147.15 158.214V157.637C147.15 155.469 145.374 154.221 142.258 154.221C139.999 154.221 138.269 154.86 137.039 156.14V157.091C137.039 160.055 138.768 161.537 142.227 161.537C145.281 161.537 147.15 160.289 147.15 158.214Z" fill="#FFD9FF"/>
<path d="M120.561 160.633L126.108 149.104H131.032V149.775L122.571 166.701C121.886 168.043 121.044 169.025 120.047 169.634C119.05 170.242 117.71 170.539 116.027 170.539H111.852V166.483H115.809C116.869 166.483 117.601 166.155 118.006 165.5L109.998 149.775V149.104H114.905L120.561 160.633Z" fill="#FFD9FF"/>
<path d="M91.6167 149.104H108.023V165.11H103.396V153.192H95.8859L95.7612 157.372C95.5898 162.536 93.5799 165.11 89.7315 165.11H87.8462V160.992H88.6564C90.5261 160.992 91.3519 159.853 91.3986 157.092L91.6167 149.104Z" fill="#FFD9FF"/>
<path d="M87.6536 149.775L81.3278 156.936L87.9964 164.439V165.11H82.8236L77.3392 159.042H73.6309V165.11H69.019V149.104H73.6309V155.048H77.1522L82.3873 149.104H87.6536V149.775Z" fill="#FFD9FF"/>
<path d="M217.958 112.977V113.242C217.958 116.643 215.637 118.343 210.978 118.343C206.32 118.343 203.982 116.643 203.982 113.242V112.977H208.002V113.242C208.002 114.225 208.984 114.708 210.963 114.708C212.785 114.708 213.705 114.225 213.705 113.242V112.977H217.958ZM206.086 136.111H201.91V120.106H206.335V130.495L215.808 120.106H219.999V136.111H215.559V125.722L206.086 136.111Z" fill="#FFD9FF"/>
<path d="M178.592 124.099H185.105C187.255 124.099 188.938 124.629 190.169 125.675C191.384 126.735 191.992 128.171 191.992 129.98V130.323C191.992 132.086 191.384 133.49 190.169 134.535C188.938 135.58 187.255 136.111 185.105 136.111H173.996V120.105H178.592V124.099ZM193.659 136.111V120.105H198.255V136.111H193.659ZM187.24 130.323V129.949C187.24 128.654 186.43 127.999 184.794 127.999H178.592V132.211H184.794C186.43 132.211 187.24 131.587 187.24 130.323Z" fill="#FFD9FF"/>
<path d="M156.742 136.111H152.13V120.105H156.742V126.049H165.747V120.105H170.375V136.111H165.747V130.105H156.742V136.111Z" fill="#FFD9FF"/>
<path d="M146.386 112.977V113.242C146.386 116.643 144.065 118.343 139.406 118.343C134.747 118.343 132.41 116.643 132.41 113.242V112.977H136.43V113.242C136.43 114.225 137.412 114.708 139.39 114.708C141.213 114.708 142.133 114.225 142.133 113.242V112.977H146.386ZM134.514 136.111H130.338V120.106H134.763V130.495L144.236 120.106H148.427V136.111H143.987V125.722L134.514 136.111Z" fill="#FFD9FF"/>
<path d="M117.879 131.634L123.426 120.105H128.349V120.776L119.889 137.702C119.204 139.044 118.362 140.026 117.365 140.635C116.368 141.243 115.028 141.54 113.345 141.54H109.17V137.484H113.127C114.187 137.484 114.919 137.156 115.324 136.501L107.315 120.776V120.105H112.223L117.879 131.634Z" fill="#FFD9FF"/>
<path d="M88.939 120.105H105.346V136.111H100.718V124.193H93.2081L93.0835 128.373C92.9121 133.537 90.9022 136.111 87.0537 136.111H85.1685V131.992H85.9787C87.8483 131.992 88.6741 130.854 88.7209 128.093L88.939 120.105Z" fill="#FFD9FF"/>
<path d="M84.9729 127.811V129.465H70.7477C71.0438 131.461 72.7576 132.569 75.5622 132.569C78.1174 132.569 79.8469 131.836 80.0962 130.65H84.9418C84.7081 132.522 83.7732 133.957 82.1528 134.971C80.5168 135.985 78.32 136.5 75.5622 136.5C72.6018 136.5 70.2647 135.783 68.5664 134.332C66.8525 132.897 65.9956 130.931 65.9956 128.435V127.842C65.9956 125.331 66.8525 123.334 68.5664 121.883C70.2803 120.432 72.6174 119.715 75.5622 119.715C78.5381 119.715 80.8596 120.417 82.5112 121.836C84.1472 123.256 84.9729 125.253 84.9729 127.811ZM75.531 123.584C72.9602 123.584 71.4021 124.442 70.8724 126.142H80.0962C79.5664 124.442 78.0395 123.584 75.531 123.584Z" fill="#FFD9FF"/>
<path d="M62.9639 120.105V132.055H66.0021V140.198H61.3746V136.111H45.2642V120.105H49.8761V132.055H58.3364V120.105H62.9639Z" fill="#FFD9FF"/>
<path d="M33.0245 136.5C30.0018 136.5 27.618 135.767 25.8729 134.316C24.1279 132.865 23.2554 130.884 23.2554 128.373V127.967C23.2554 125.409 24.1279 123.396 25.8574 121.914C27.5868 120.448 29.9862 119.715 33.0245 119.715C36.0472 119.715 38.4154 120.448 40.1293 121.914C41.8276 123.396 42.6845 125.409 42.6845 127.967V128.373C42.6845 130.884 41.8276 132.865 40.1137 134.316C38.3843 135.767 36.0316 136.5 33.0245 136.5ZM32.9777 132.273C36.0939 132.273 37.9013 130.853 37.9013 128.342V127.998C37.9013 125.393 36.1406 123.942 32.9777 123.942C29.7837 123.942 28.0387 125.362 28.0387 127.998V128.342C28.0387 130.853 29.8149 132.273 32.9777 132.273Z" fill="#FFD9FF"/>
<path d="M4.78328 136.111H0V115.16H20.5198V136.111H15.721V119.466H4.78328V136.111Z" fill="#FFD9FF"/>
<defs>
<linearGradient id="paint0_linear_1_4634" x1="110" y1="38.5465" x2="110" y2="125.167" gradientUnits="userSpaceOnUse">
<stop stop-color="#FFC4E5"/>
<stop offset="1" stop-color="#FDFF72"/>
</linearGradient>
</defs>
</svg>
