<svg width="360" height="94" viewBox="0 0 360 94" fill="none" xmlns="http://www.w3.org/2000/svg">
<path fill-rule="evenodd" clip-rule="evenodd" d="M13.4226 46.5975L8.82485 45.2428C-1.60812 42.1688 -3.20822 28.0596 6.27141 22.7274L14.0012 18.3794C15.9797 17.2665 17.6116 15.6276 18.7162 13.6443L22.6452 6.58941C27.9493 -2.93474 42.105 -1.35981 45.1861 9.09725L46.3781 13.1431C46.4964 13.5446 47.0651 13.5446 47.1834 13.1431L48.3755 9.09725C51.4565 -1.35981 65.6122 -2.93474 70.9164 6.58941L74.8453 13.6443C75.9499 15.6276 77.5818 17.2665 79.5604 18.3794L87.2901 22.7274C96.7697 28.0596 95.1696 42.1688 84.7367 45.2428L80.1389 46.5975C79.7375 46.7157 79.7375 47.2844 80.1389 47.4027L84.7367 48.7574C95.1696 51.8314 96.7697 65.9405 87.2901 71.2728L79.5604 75.6207C77.5818 76.7336 75.9499 78.3725 74.8453 80.3558L70.9164 87.4107C65.6122 96.9349 51.4565 95.3599 48.3755 84.9029L47.1834 80.857C47.0651 80.4556 46.4964 80.4556 46.3781 80.857L45.1861 84.9029C42.105 95.3599 27.9493 96.9349 22.6452 87.4107L18.7162 80.3558C17.6116 78.3725 15.9797 76.7336 14.0012 75.6207L6.27141 71.2728C-3.20822 65.9405 -1.60812 51.8314 8.82485 48.7574L13.4226 47.4027C13.824 47.2844 13.824 46.7157 13.4226 46.5975ZM56.4813 46.9595C56.4813 44.8213 52.0968 43.0879 46.6884 43.0879C41.2799 43.0879 36.8955 44.8213 36.8955 46.9595C36.8955 49.0977 41.2799 50.8311 46.6884 50.8311C52.0968 50.8311 56.4813 49.0977 56.4813 46.9595Z" fill="url(#paint0_linear_1_3456)"/>
<path d="M186.911 60.1254V60.3015C188.876 58.7692 191.354 57.9942 194.38 57.9942C197.407 57.9942 199.779 58.7164 201.513 60.143C203.23 61.5697 204.097 63.5423 204.097 66.0434V66.8007C204.097 69.3546 203.124 71.3625 201.177 72.8596C199.23 74.3567 196.61 75.0964 193.301 75.0964C185.92 75.0964 181.885 71.2568 181.885 64.194V62.2918C181.885 55.1762 185.212 51.5479 192.433 50.9138L196.345 50.5968C197.124 50.5263 197.513 50.2798 197.495 49.8394V49.5576H203.018V50.5616C203.018 53.2563 201.425 54.7358 198.257 55L192.575 55.458C188.699 55.7926 186.911 57.2897 186.911 60.1254ZM198.664 66.8712V66.2195C198.664 63.7713 196.646 62.3623 193.106 62.3623C190.54 62.3623 188.575 63.0844 187.177 64.5287V65.603C187.177 68.9495 189.141 70.6227 193.071 70.6227C196.54 70.6227 198.664 69.2137 198.664 66.8712Z" fill="#FFD9FF"/>
<path d="M168.459 69.6005L174.76 56.5845H180.353V57.3418L170.742 76.4519C169.963 77.9666 169.008 79.0763 167.875 79.7632C166.742 80.4501 165.22 80.7847 163.309 80.7847H158.565V76.2053H163.061C164.264 76.2053 165.096 75.8355 165.556 75.0957L156.459 57.3418V56.5845H162.034L168.459 69.6005Z" fill="#FFD9FF"/>
<path d="M135.581 56.5845H154.218V74.6554H148.962V61.1991H140.431L140.289 65.9194C140.094 71.7492 137.811 74.6554 133.439 74.6554H131.298V70.0056H132.218C134.342 70.0056 135.28 68.7198 135.333 65.6023L135.581 56.5845Z" fill="#FFD9FF"/>
<path d="M131.076 57.3418L123.891 65.4262L131.466 73.898V74.6554H125.59L119.36 67.8039H115.147V74.6554H109.908V56.5845H115.147V63.295H119.147L125.094 56.5845H131.076V57.3418Z" fill="#FFD9FF"/>
<path d="M357.681 15.7925V16.0919C357.681 19.9315 355.044 21.8513 349.752 21.8513C344.46 21.8513 341.805 19.9315 341.805 16.0919V15.7925H346.372V16.0919C346.372 17.2015 347.487 17.7475 349.734 17.7475C351.805 17.7475 352.849 17.2015 352.849 16.0919V15.7925H357.681ZM344.195 41.9125H339.451V23.8416H344.478V35.5719L355.239 23.8416H360V41.9125H354.956V30.1823L344.195 41.9125Z" fill="#FFD9FF"/>
<path d="M312.961 28.3502H320.36C322.802 28.3502 324.714 28.9491 326.112 30.1291C327.493 31.3268 328.183 32.9472 328.183 34.9903V35.3778C328.183 37.3681 327.493 38.9533 326.112 40.1333C324.714 41.3134 322.802 41.9122 320.36 41.9122H307.74V23.8413H312.961V28.3502ZM330.077 41.9122V23.8413H335.298V41.9122H330.077ZM322.785 35.3778V34.9551C322.785 33.4932 321.864 32.7535 320.006 32.7535H312.961V37.509H320.006C321.864 37.509 322.785 36.8045 322.785 35.3778Z" fill="#FFD9FF"/>
<path d="M288.137 41.9122H282.898V23.8413H288.137V30.5519H298.368V23.8413H303.624V41.9122H298.368V35.1312H288.137V41.9122Z" fill="#FFD9FF"/>
<path d="M276.376 15.7925V16.0919C276.376 19.9315 273.739 21.8513 268.446 21.8513C263.154 21.8513 260.499 19.9315 260.499 16.0919V15.7925H265.066V16.0919C265.066 17.2015 266.181 17.7475 268.429 17.7475C270.5 17.7475 271.544 17.2015 271.544 16.0919V15.7925H276.376ZM262.889 41.9125H258.146V23.8416H263.172V35.5719L273.933 23.8416H278.694V41.9125H273.65V30.1823L262.889 41.9125Z" fill="#FFD9FF"/>
<path d="M243.993 36.8573L250.294 23.8413H255.887V24.5987L246.276 43.7088C245.498 45.2235 244.542 46.3331 243.409 47.02C242.276 47.7069 240.754 48.0415 238.843 48.0415H234.099V43.4622H238.595C239.799 43.4622 240.63 43.0923 241.091 42.3526L231.993 24.5987V23.8413H237.568L243.993 36.8573Z" fill="#FFD9FF"/>
<path d="M211.115 23.8413H229.752V41.9122H224.496V28.4559H215.965L215.823 33.1762C215.629 39.0061 213.345 41.9122 208.974 41.9122H206.832V37.2624H207.752C209.876 37.2624 210.814 35.9767 210.867 32.8592L211.115 23.8413Z" fill="#FFD9FF"/>
<path d="M206.611 32.5425V34.4095H190.452C190.788 36.6639 192.735 37.9145 195.921 37.9145C198.824 37.9145 200.788 37.0867 201.071 35.7481H206.576C206.31 37.8616 205.249 39.482 203.408 40.6269C201.549 41.7717 199.054 42.3529 195.921 42.3529C192.558 42.3529 189.903 41.5427 187.974 39.9047C186.027 38.2843 185.054 36.0651 185.054 33.247V32.5777C185.054 29.742 186.027 27.4876 187.974 25.8496C189.921 24.2116 192.576 23.4014 195.921 23.4014C199.302 23.4014 201.939 24.194 203.815 25.7967C205.673 27.3995 206.611 29.654 206.611 32.5425ZM195.886 27.7694C192.965 27.7694 191.195 28.7381 190.594 30.6579H201.071C200.47 28.7381 198.735 27.7694 195.886 27.7694Z" fill="#FFD9FF"/>
<path d="M181.608 23.8413V37.3329H185.06V46.5268H179.803V41.9122H161.502V23.8413H166.741V37.3329H176.352V23.8413H181.608Z" fill="#FFD9FF"/>
<path d="M147.601 42.3529C144.168 42.3529 141.46 41.5251 139.477 39.8871C137.495 38.2491 136.504 36.0123 136.504 33.1766V32.7186C136.504 29.8301 137.495 27.558 139.46 25.8848C141.424 24.2292 144.15 23.4014 147.601 23.4014C151.035 23.4014 153.725 24.2292 155.672 25.8848C157.601 27.558 158.575 29.8301 158.575 32.7186V33.1766C158.575 36.0123 157.601 38.2491 155.654 39.8871C153.69 41.5251 151.017 42.3529 147.601 42.3529ZM147.548 37.5798C151.088 37.5798 153.141 35.977 153.141 33.1413V32.7539C153.141 29.8125 151.141 28.1745 147.548 28.1745C143.92 28.1745 141.938 29.7773 141.938 32.7539V33.1413C141.938 35.977 143.955 37.5798 147.548 37.5798Z" fill="#FFD9FF"/>
<path d="M115.52 41.9125H110.086V18.2583H133.396V41.9125H127.944V23.1195H115.52V41.9125Z" fill="#FFD9FF"/>
<defs>
<linearGradient id="paint0_linear_1_3456" x1="46.7808" y1="34.6809" x2="46.7808" y2="112.266" gradientUnits="userSpaceOnUse">
<stop stop-color="#FFC4E5"/>
<stop offset="1" stop-color="#FDFF72"/>
</linearGradient>
</defs>
</svg>
